<svg width="24" height="14" viewBox="0 0 24 14" fill="none" xmlns="http://www.w3.org/2000/svg">
<path d="M20.6554 8.84495C21.4515 9.62223 22.2918 10.3535 23.0058 11.2091C23.3212 11.5894 23.6198 11.9817 23.8483 12.423C24.172 13.0503 23.8788 13.7406 23.3164 13.778L19.82 13.7764C18.9182 13.8513 18.1988 13.4883 17.5939 12.8717C17.1098 12.3786 16.6615 11.8538 16.1961 11.3441C16.0052 11.1358 15.8055 10.9397 15.5669 10.7848C15.0896 10.475 14.6753 10.5698 14.4025 11.0676C14.1247 11.574 14.0617 12.1346 14.0344 12.6989C13.997 13.5222 13.7481 13.7387 12.9211 13.7763C11.1537 13.8597 9.47629 13.5923 7.91802 12.7007C6.54421 11.9147 5.47893 10.805 4.55165 9.54883C2.74635 7.10275 1.36377 4.41484 0.12121 1.65166C-0.158493 1.02911 0.0460693 0.694937 0.732976 0.683078C1.87358 0.660906 3.01405 0.6625 4.15602 0.681484C4.61962 0.688281 4.92651 0.954157 5.10552 1.39211C5.72263 2.9095 6.47774 4.35316 7.42555 5.6913C7.67798 6.04755 7.93537 6.40384 8.30184 6.65458C8.7073 6.93222 9.01602 6.8402 9.20676 6.38852C9.32779 6.10211 9.3808 5.79363 9.40808 5.48692C9.49846 4.43163 9.51037 3.37811 9.35188 2.32652C9.25457 1.67022 8.88491 1.24534 8.23002 1.12117C7.89585 1.05784 7.94558 0.933484 8.1074 0.74275C8.38841 0.413781 8.65274 0.208984 9.17966 0.208984H13.1311C13.7532 0.33175 13.8913 0.611219 13.9765 1.23714L13.9799 5.62638C13.9731 5.86867 14.1009 6.58778 14.5374 6.74814C14.8867 6.86233 15.1169 6.58286 15.3266 6.36138C16.2726 5.35727 16.9479 4.17058 17.5511 2.9418C17.8188 2.40147 18.049 1.84037 18.2721 1.2797C18.4374 0.863687 18.6967 0.658984 19.1653 0.668031L22.9684 0.671406C23.0812 0.671406 23.1953 0.673047 23.3045 0.69175C23.9453 0.800969 24.121 1.07664 23.923 1.70242C23.6112 2.68422 23.0044 3.50242 22.4111 4.32438C21.7768 5.20192 21.0985 6.04947 20.4696 6.93222C19.8917 7.73847 19.9376 8.14478 20.6554 8.84495Z" fill="#9B1A48"/>
</svg>
