<svg width="48" height="48" viewBox="0 0 48 48" fill="none" xmlns="http://www.w3.org/2000/svg">
<rect x="0.5" y="47.5" width="47" height="47" rx="23.5" transform="rotate(-90 0.5 47.5)" fill="white" stroke="#BDBDBD"/>
<g clip-path="url(#clip0)">
<path d="M13.8156 14.9184C16.2365 12.4976 20.1622 12.4976 22.583 14.9184L34.6377 26.973C36.4541 28.7894 36.4541 31.7326 34.6377 33.549C33.1406 35.0461 30.8825 35.2879 29.1172 34.3162C28.9328 34.3069 28.7514 34.2372 28.6104 34.0977L16.5558 22.0431C15.3454 20.8327 15.3454 18.8705 16.5558 17.6601C17.7662 16.4497 19.7283 16.4497 20.9387 17.6601L30.8019 27.5233C31.1041 27.8255 31.1041 28.3168 30.8019 28.619C30.4996 28.9212 30.0083 28.9212 29.7062 28.619L19.843 18.7559C19.237 18.1499 18.256 18.1499 17.6515 18.7559C17.0455 19.3618 17.0455 20.3429 17.6515 20.9473L29.159 32.4548C30.3694 33.6652 32.3315 33.6652 33.5419 32.4548C34.7523 31.2444 34.7523 29.2823 33.5419 28.0719L21.4873 16.0141C19.6709 14.1978 16.7278 14.1978 14.9114 16.0141C13.095 17.8305 13.095 20.7737 14.9114 22.5901L25.8702 33.549C26.1725 33.8513 26.1725 34.3426 25.8702 34.6447C25.568 34.947 25.0767 34.947 24.7745 34.6447L13.8156 23.6858C11.3948 21.265 11.3948 17.3393 13.8156 14.9184Z" fill="#9B1A48"/>
</g>
<defs>
<clipPath id="clip0">
<rect width="24" height="24" fill="white" transform="matrix(-1 0 0 1 36 12)"/>
</clipPath>
</defs>
</svg>
