<svg width="18" height="18" viewBox="0 0 18 18" fill="none" xmlns="http://www.w3.org/2000/svg">
<path d="M4.00336 7.11687C3.99162 7.22895 4.01054 7.34424 4.06209 7.4501C4.16458 7.66061 4.37904 7.79413 4.61349 7.79413H7.11034V15.7726C7.11034 16.4507 7.65962 17 8.33779 17H9.56524C10.2434 17 10.7927 16.4507 10.7927 15.7726V7.79413H13.2919C13.527 7.79413 13.7408 7.66061 13.8433 7.4501C13.8857 7.36418 13.9057 7.27185 13.9057 7.1804C13.9057 7.046 13.8627 6.91267 13.7774 6.80282L9.43698 1.23614C9.32037 1.08701 9.14355 1 8.95391 1C8.76427 1 8.58564 1.08701 8.46964 1.23614L4.12922 6.80282C4.05711 6.89549 4.01509 7.00479 4.00336 7.11687Z" fill="#9B1A48"/>
</svg>
