<svg width="22" height="25" viewBox="0 0 22 25" fill="none" xmlns="http://www.w3.org/2000/svg">
<path opacity="0.35" d="M10.9998 0.0834961C9.12968 0.0834961 7.61432 1.59886 7.61432 3.46902C7.61432 5.33918 9.12968 6.85455 10.9998 6.85455C12.87 6.85455 14.3854 5.33918 14.3854 3.46902C14.3854 1.59886 12.87 0.0834961 10.9998 0.0834961Z" fill="#9B1A48"/>
<path d="M20.4781 17.6885C20.2411 17.6885 20 17.6262 19.782 17.4948L16.6849 15.6368C16.2516 15.3782 15.9171 14.9922 15.7153 14.5264L14.5209 11.7367C14.3069 11.2397 13.8194 10.9174 13.2777 10.9174H8.72352C8.18183 10.9174 7.69296 11.2397 7.479 11.7381L6.28323 14.5264C6.08416 14.9936 5.74832 15.3782 5.31362 15.6382L2.21789 17.4948C1.576 17.8794 0.744512 17.6722 0.359916 17.0303C-0.0246794 16.3884 0.182515 15.5569 0.82441 15.1723L3.83482 13.3672L4.99131 10.6709C5.6305 9.17589 7.09576 8.20898 8.72216 8.20898H13.2764C14.9028 8.20898 16.368 9.17589 17.0099 10.6696L18.1664 13.3672L21.1768 15.1723C21.8187 15.5569 22.0259 16.3884 21.6413 17.0303C21.3867 17.4542 20.9385 17.6885 20.4781 17.6885Z" fill="#9B1A48"/>
<path d="M15.0624 16.3342V13.8777L16.1377 15.1845L15.7111 10.0696L10.9998 8.96729V21.0577L18.0119 17.9322L15.0624 16.3342Z" fill="#9B1A48"/>
<path d="M17.5516 21.8245L7.24605 24.4205C6.52832 24.6006 5.80111 24.1592 5.62371 23.4319C5.45985 22.767 5.8133 22.0953 6.42405 21.8475L16.2786 17.8418C17.3417 17.4098 18.5483 17.9311 18.9749 19.0064C19.4014 20.0816 18.8868 21.3031 17.8238 21.7351C17.7385 21.7703 17.6396 21.8015 17.5516 21.8245Z" fill="#9B1A48"/>
<path d="M3.98779 17.9322L10.9999 21.0577V8.96729L6.2886 10.0696L5.86202 15.1845L6.93726 13.8777V16.3342L3.98779 17.9322Z" fill="#9B1A48"/>
<path d="M4.44809 21.8245L14.7536 24.4205C15.4714 24.6006 16.1986 24.1592 16.376 23.4319C16.5398 22.767 16.1864 22.0953 15.5756 21.8475L5.72104 17.8418C4.65799 17.4098 3.45139 17.9311 3.02481 19.0064C2.59824 20.0816 3.11284 21.3031 4.17589 21.7351C4.26121 21.7703 4.36006 21.8015 4.44809 21.8245Z" fill="#9B1A48"/>
</svg>
