<svg width="16" height="19" viewBox="0 0 16 19" fill="none" xmlns="http://www.w3.org/2000/svg">
<path d="M2.86675 0.699951C1.65161 0.699951 0.666748 1.68482 0.666748 2.89995V16.1C0.666766 16.1966 0.685882 16.2923 0.722998 16.3815C0.760114 16.4707 0.814498 16.5517 0.883024 16.6199C1.14177 17.5468 1.86234 18.3 2.86675 18.3H14.6001C14.6973 18.3013 14.7937 18.2834 14.8839 18.2471C14.9741 18.2109 15.0562 18.1571 15.1254 18.0889C15.1946 18.0206 15.2495 17.9393 15.287 17.8497C15.3245 17.76 15.3439 17.6638 15.3439 17.5666C15.3439 17.4694 15.3245 17.3732 15.287 17.2836C15.2495 17.1939 15.1946 17.1126 15.1254 17.0444C15.0562 16.9761 14.9741 16.9223 14.8839 16.8861C14.7937 16.8499 14.6973 16.8319 14.6001 16.8333H2.86675C2.45239 16.8333 2.13341 16.5143 2.13341 16.1C2.13341 15.6856 2.45239 15.3666 2.86675 15.3666H13.8667C14.6771 15.3666 15.3334 14.7103 15.3334 13.9V2.16662C15.3334 1.35628 14.6771 0.699951 13.8667 0.699951H2.86675ZM5.80008 5.09995H10.9334C11.3382 5.09995 11.6667 5.42848 11.6667 5.83328C11.6667 6.23808 11.3382 6.56662 10.9334 6.56662H5.80008C5.39528 6.56662 5.06675 6.23808 5.06675 5.83328C5.06675 5.42848 5.39528 5.09995 5.80008 5.09995Z" fill="#9B1A48"/>
</svg>
