<svg width="24" height="13" viewBox="0 0 24 13" fill="none" xmlns="http://www.w3.org/2000/svg">
<path opacity="0.35" d="M5.50001 13C5.11601 13 4.73201 12.854 4.43901 12.561L0.439012 8.56099C-0.146988 7.97499 -0.146988 7.02599 0.439012 6.43999C1.02501 5.85399 1.97401 5.85399 2.56001 6.43999L5.50001 9.37899L14.439 0.439988C15.025 -0.146012 15.974 -0.146012 16.56 0.439988C17.146 1.02599 17.146 1.97499 16.56 2.56099L6.56001 12.561C6.26801 12.854 5.88401 13 5.50001 13Z" fill="#6D5555"/>
<path d="M12.5 13C12.116 13 11.732 12.854 11.439 12.561L7.43901 8.56099C6.85301 7.97499 6.85301 7.02599 7.43901 6.43999C8.02501 5.85399 8.97401 5.85399 9.56001 6.43999L12.499 9.37899L21.438 0.439988C22.024 -0.146012 22.973 -0.146012 23.559 0.439988C24.145 1.02599 24.145 1.97499 23.559 2.56099L13.559 12.561C13.268 12.854 12.884 13 12.5 13Z" fill="#6D5555"/>
</svg>
