<svg width="14" height="14" viewBox="0 0 14 14" fill="none" xmlns="http://www.w3.org/2000/svg">
<path d="M3.05667 4.08325H4.87667L1.54 6.86575L0.793335 5.96742L3.05667 4.08325Z" fill="black"/>
<path d="M6.21837 4.08325L4.6317 8.37075L3.53503 7.96242L4.97003 4.08325H6.21837Z" fill="black"/>
<path d="M4.08329 9.33333C4.72763 9.33333 5.24996 8.811 5.24996 8.16667C5.24996 7.52233 4.72763 7 4.08329 7C3.43896 7 2.91663 7.52233 2.91663 8.16667C2.91663 8.811 3.43896 9.33333 4.08329 9.33333Z" fill="black"/>
<path d="M1.16667 7.58333C1.811 7.58333 2.33333 7.061 2.33333 6.41667C2.33333 5.77233 1.811 5.25 1.16667 5.25C0.522334 5.25 0 5.77233 0 6.41667C0 7.061 0.522334 7.58333 1.16667 7.58333Z" fill="black"/>
<path d="M13.2066 5.96742L12.46 6.86575L9.12329 4.08325H10.9433L13.2066 5.96742Z" fill="black"/>
<path d="M10.4651 7.96242L9.3684 8.37075L7.78174 4.08325H9.03007L10.4651 7.96242Z" fill="black"/>
<path d="M9.91667 9.33333C10.561 9.33333 11.0833 8.811 11.0833 8.16667C11.0833 7.52233 10.561 7 9.91667 7C9.27233 7 8.75 7.52233 8.75 8.16667C8.75 8.811 9.27233 9.33333 9.91667 9.33333Z" fill="black"/>
<path d="M12.8333 7.58333C13.4776 7.58333 14 7.061 14 6.41667C14 5.77233 13.4776 5.25 12.8333 5.25C12.189 5.25 11.6666 5.77233 11.6666 6.41667C11.6666 7.061 12.189 7.58333 12.8333 7.58333Z" fill="black"/>
<path opacity="0.35" d="M11.375 12.8333H2.625C2.142 12.8333 1.75 12.4413 1.75 11.9583C1.75 11.4753 2.142 11.0833 2.625 11.0833H11.375C11.858 11.0833 12.25 11.4753 12.25 11.9583C12.25 12.4413 11.858 12.8333 11.375 12.8333Z" fill="black"/>
<path d="M7.58329 4.08325H6.41663V11.0833H7.58329V4.08325Z" fill="black"/>
<path opacity="0.35" d="M11.5722 4.08334H2.42783C2.05333 4.08334 1.75 3.78001 1.75 3.40551C1.75 3.11384 1.93667 2.85484 2.21375 2.76209L6.26208 1.41284C6.741 1.25301 7.259 1.25301 7.73792 1.41284L11.7862 2.76209C12.0633 2.85426 12.25 3.11326 12.25 3.40551C12.25 3.78001 11.9467 4.08334 11.5722 4.08334Z" fill="black"/>
</svg>
