<svg width="32" height="32" viewBox="0 0 32 32" fill="none" xmlns="http://www.w3.org/2000/svg">
<rect y="32.0002" width="32" height="32" rx="16" transform="rotate(-90 0 32.0002)" fill="#BDBDBD"/>
<g clip-path="url(#clip0)">
<path d="M16 15.4035L11.3202 10.7237C11.1554 10.559 10.8883 10.559 10.7235 10.7237C10.5588 10.8885 10.5588 11.1556 10.7235 11.3204L15.4034 16.0002L10.7235 20.6799C10.5588 20.8447 10.5588 21.1118 10.7235 21.2766C10.8883 21.4413 11.1554 21.4413 11.3202 21.2766L16 16.5968L20.6798 21.2766C20.8446 21.4413 21.1117 21.4413 21.2764 21.2766C21.3588 21.1942 21.4 21.0862 21.4 20.9782C21.4 20.8703 21.3588 20.7623 21.2764 20.6799L16.5966 16.0002L21.2764 11.3204C21.3588 11.238 21.4 11.13 21.4 11.0221C21.4 10.9141 21.3588 10.8061 21.2764 10.7237C21.1117 10.559 20.8445 10.559 20.6798 10.7237L16 15.4035Z" fill="white" stroke="white" stroke-width="0.3"/>
</g>
<defs>
<clipPath id="clip0">
<rect width="12" height="12" fill="white" transform="translate(10 22.0002) rotate(-90)"/>
</clipPath>
</defs>
</svg>
