<svg width="14" height="14" viewBox="0 0 14 14" fill="none" xmlns="http://www.w3.org/2000/svg">
<path d="M6.58339 4.71745V8.5167L5.96972 10.8156L5.14547 9.50079C5.01364 9.2902 4.71731 9.26395 4.55047 9.44829L3.50047 10.6074L2.64355 9.59645L3.66672 7.62245V4.6667L6.07239 4.2817C6.34072 4.23912 6.58339 4.44562 6.58339 4.71745Z" fill="black"/>
<path d="M2.32262 7.50163C2.21703 7.50163 2.11087 7.48471 2.00645 7.4503L0.565618 6.96963C0.259951 6.86755 0.0948676 6.53738 0.196951 6.23171C0.299034 5.92605 0.628618 5.7598 0.934868 5.86305L2.25087 6.30171L3.02378 5.07496C3.28628 4.65846 3.71737 4.38138 4.2062 4.31546L5.85179 4.09438C6.20937 4.04713 6.57687 4.11771 6.88954 4.29505L8.08304 4.96996L9.1587 4.19355C9.42062 4.00571 9.78462 4.06463 9.97304 4.32538C10.1615 4.58671 10.1025 4.9513 9.8412 5.13971L8.72529 5.9453C8.38112 6.1938 7.92087 6.21888 7.55104 6.00946L6.31437 5.31005C6.22162 5.25755 6.11254 5.23596 6.00695 5.25055L4.36137 5.47163C4.2167 5.49146 4.08895 5.57313 4.01079 5.6968L3.16787 7.03496C2.98003 7.33188 2.65862 7.50163 2.32262 7.50163Z" fill="black"/>
<path d="M7.75057 12.8332C7.5744 12.8332 7.40057 12.7539 7.28565 12.6028L6.19015 11.162C5.91015 10.7939 5.72524 10.3576 5.65524 9.89964L5.42424 8.38589C5.41957 8.35672 5.41724 8.32755 5.41724 8.2978V7.17489C5.41724 6.85289 5.67857 6.59155 6.00057 6.59155C6.32257 6.59155 6.5839 6.85289 6.5839 7.17489V8.25405L6.80849 9.72405C6.84874 9.98947 6.95607 10.2426 7.11882 10.4561L8.21432 11.897C8.40915 12.1536 8.35957 12.5194 8.10349 12.7142C7.99732 12.7947 7.87365 12.8332 7.75057 12.8332Z" fill="black"/>
<path d="M3.60079 12.8333C3.3447 12.8333 3.10962 12.663 3.03845 12.4046L2.5537 10.6406C2.43879 10.2223 2.51054 9.77491 2.75145 9.41324L3.85279 7.76124C4.03187 7.49349 4.39295 7.41999 4.66187 7.59966C4.92962 7.77874 5.00195 8.14041 4.82345 8.40874L3.72212 10.0602C3.66904 10.1401 3.6527 10.2392 3.67837 10.3314L4.16312 12.096C4.24829 12.4069 4.0657 12.7277 3.75537 12.8129C3.70345 12.8269 3.65154 12.8333 3.60079 12.8333Z" fill="black"/>
<path opacity="0.35" d="M4.54171 3.49992C5.34712 3.49992 6.00004 2.847 6.00004 2.04159C6.00004 1.23617 5.34712 0.583252 4.54171 0.583252C3.73629 0.583252 3.08337 1.23617 3.08337 2.04159C3.08337 2.847 3.73629 3.49992 4.54171 3.49992Z" fill="black"/>
<path opacity="0.35" d="M13.5 5H12C11.448 5 11 5.448 11 6V8.092C10.843 8.036 10.676 8 10.5 8C9.672 8 9 8.672 9 9.5C9 10.328 9.672 11 10.5 11C11.328 11 12 10.328 12 9.5V7H13C13.552 7 14 6.552 14 6V5.5C14 5.224 13.776 5 13.5 5Z" fill="black"/>
</svg>
