<svg width="24" height="24" viewBox="0 0 24 24" fill="none" xmlns="http://www.w3.org/2000/svg">
<path d="M18.8914 7.20564H4.62017C4.46577 7.19252 4.31278 7.24354 4.19709 7.34665C4.08335 7.45591 4.03066 7.61408 4.05609 7.76972L5.52268 20.5461C5.69467 21.9547 6.89582 23.0104 8.31486 22.9999H15.4223C16.8812 23.0207 18.1102 21.9146 18.2427 20.4615L19.4554 7.71331C19.4629 7.57656 19.4117 7.44312 19.3144 7.34665C19.1988 7.24354 19.0458 7.19252 18.8914 7.20564ZM17.1146 20.4051C17.0259 21.264 16.285 21.906 15.4223 21.8717H8.31491C7.46768 21.9061 6.73943 21.2766 6.65084 20.4333L5.24066 8.3338H18.2709L17.1146 20.4051Z" fill="#BDBDBD" stroke="#BDBDBD" stroke-width="0.3"/>
<path d="M20.9531 3.53867H15.1431V2.63611C15.1744 1.76437 14.4931 1.03234 13.6214 1.00103C13.5928 1.00001 13.5641 0.999736 13.5355 1.00028H9.98174C9.10957 0.984135 8.38953 1.67805 8.37339 2.55022C8.37285 2.57883 8.37312 2.6075 8.37414 2.63611V3.53862H2.56408C2.25254 3.53862 2 3.79116 2 4.1027C2 4.41424 2.25254 4.66678 2.56408 4.66678H20.9531C21.2647 4.66678 21.5172 4.41424 21.5172 4.1027C21.5172 3.79116 21.2646 3.53867 20.9531 3.53867ZM14.0149 2.63611V3.53862H9.50225V2.63611C9.47046 2.38891 9.64509 2.16277 9.89229 2.13098C9.92193 2.12714 9.95189 2.12633 9.98169 2.12844H13.5354C13.784 2.11084 13.9998 2.29806 14.0174 2.54671C14.0196 2.57651 14.0187 2.60647 14.0149 2.63611Z" fill="#BDBDBD" stroke="#BDBDBD" stroke-width="0.3"/>
</svg>
