<svg width="24" height="24" viewBox="0 0 24 24" fill="none" xmlns="http://www.w3.org/2000/svg">
<path opacity="0.35" d="M21.4269 12.015L19.6969 9.909C19.2149 5.505 15.9999 2 10.9999 2C5.36295 2 2.02295 5.928 2.02295 11C2.02295 14.638 3.90995 16.297 4.67895 18.832C5.06695 20.11 6.22195 21 7.55695 21H16.1849C17.6139 21 18.8449 19.991 19.1259 18.59L19.6499 15.976L20.7739 15.365C21.9949 14.7 22.3089 13.089 21.4269 12.015Z" fill="#6D5555"/>
<path d="M11.744 8C11.744 7.543 11.949 7.137 12.272 6.864C12.559 6.621 12.685 6.234 12.552 5.881C12.32 5.265 11.99 4.698 11.58 4.198C11.35 3.918 10.963 3.81 10.625 3.94C10.219 4.098 9.74998 4.078 9.34398 3.843C8.93598 3.608 8.68397 3.21 8.61697 2.778C8.56297 2.425 8.28397 2.143 7.93197 2.083C7.60997 2.029 7.27997 2 6.94397 2C6.60797 2 6.27697 2.029 5.95497 2.083C5.60297 2.143 5.32398 2.425 5.26997 2.778C5.20298 3.21 4.95098 3.608 4.54398 3.843C4.13698 4.078 3.66797 4.098 3.26297 3.941C2.92497 3.811 2.53797 3.918 2.30797 4.199C1.89797 4.699 1.56797 5.266 1.33597 5.882C1.20297 6.234 1.32897 6.621 1.61597 6.865C1.93797 7.137 2.14397 7.543 2.14397 8C2.14397 8.456 1.93897 8.863 1.61597 9.136C1.32897 9.379 1.20297 9.766 1.33597 10.118C1.56797 10.734 1.89797 11.301 2.30797 11.801C2.53797 12.081 2.92497 12.189 3.26297 12.059C3.66897 11.902 4.13798 11.922 4.54398 12.157C4.95198 12.393 5.20397 12.79 5.26997 13.222C5.32398 13.575 5.60397 13.857 5.95597 13.917C6.27697 13.971 6.60697 14 6.94397 14C7.28097 14 7.61097 13.971 7.93197 13.917C8.28397 13.857 8.56297 13.575 8.61797 13.222C8.68397 12.79 8.93598 12.393 9.34398 12.157C9.74998 11.922 10.219 11.902 10.625 12.059C10.963 12.189 11.35 12.081 11.58 11.801C11.99 11.301 12.32 10.734 12.552 10.118C12.685 9.766 12.559 9.379 12.272 9.136C11.949 8.863 11.744 8.456 11.744 8ZM6.94397 10.4C5.61897 10.4 4.54398 9.325 4.54398 8C4.54398 6.675 5.61897 5.6 6.94397 5.6C8.26897 5.6 9.34398 6.675 9.34398 8C9.34398 9.325 8.26897 10.4 6.94397 10.4Z" fill="#6D5555"/>
</svg>
