<svg width="22" height="22" viewBox="0 0 22 22" fill="none" xmlns="http://www.w3.org/2000/svg">
<path opacity="0.35" d="M14.9712 1.95801H7.02884C5.94074 1.95801 4.94556 2.57294 4.45898 3.54609L2.30194 7.85921C1.7713 8.92049 1.94754 10.1992 2.74542 11.0775L9.58146 18.5975C10.342 19.4336 11.6561 19.4336 12.4166 18.5975L19.2527 11.0775C20.0506 10.1992 20.2278 8.92049 19.6962 7.85921L17.5391 3.54609C17.0545 2.57294 16.0593 1.95801 14.9712 1.95801Z" fill="#CFA146"/>
<path d="M13.8735 9.62061H19.9567C19.8676 10.1522 19.6339 10.6599 19.2546 11.0775L15.4568 15.2555L12.4186 18.5974C12.1025 18.9451 11.6906 19.1395 11.2625 19.198L13.8735 9.62061Z" fill="#CFA146"/>
<path d="M2.04333 9.62061H8.12652L10.7385 19.198C10.3104 19.1395 9.89851 18.9451 9.58242 18.5974L6.54418 15.2555L2.74638 11.0775C2.36708 10.6599 2.13337 10.1522 2.04333 9.62061Z" fill="#CFA146"/>
<path d="M13.8735 9.62066H8.12655L5.436 2.4465C5.89959 2.13616 6.44939 1.95801 7.02888 1.95801H14.9712C15.5507 1.95801 16.1005 2.13616 16.5641 2.4465L13.8735 9.62066Z" fill="#CFA146"/>
</svg>
