<svg width="19" height="18" viewBox="0 0 19 18" fill="none" xmlns="http://www.w3.org/2000/svg">
<path opacity="0.35" d="M13.9712 0.457764H6.02884C4.94074 0.457764 3.94556 1.07269 3.45898 2.04585L1.30194 6.35896C0.771303 7.42024 0.947544 8.69895 1.74542 9.57728L8.58146 17.0972C9.34198 17.9334 10.6561 17.9334 11.4166 17.0972L18.2527 9.57728C19.0506 8.69895 19.2278 7.42024 18.6962 6.35896L16.5391 2.04585C16.0545 1.07269 15.0593 0.457764 13.9712 0.457764Z" fill="#9B1A48"/>
<path d="M12.8736 8.12061H18.9568C18.8677 8.6522 18.634 9.15985 18.2547 9.57747L14.4569 13.7555L11.4187 17.0974C11.1026 17.4451 10.6907 17.6395 10.2626 17.698L12.8736 8.12061Z" fill="#9B1A48"/>
<path d="M1.04333 8.12061H7.12652L9.73853 17.698C9.31037 17.6395 8.89851 17.4451 8.58242 17.0974L5.54418 13.7555L1.74638 9.57747C1.36708 9.15985 1.13337 8.6522 1.04333 8.12061Z" fill="#9B1A48"/>
<path d="M12.8734 8.12042H7.12643L4.43588 0.946258C4.89947 0.635921 5.44927 0.457764 6.02875 0.457764H13.9711C14.5506 0.457764 15.1004 0.635921 15.564 0.946258L12.8734 8.12042Z" fill="#9B1A48"/>
</svg>
