<svg width="14" height="24" viewBox="0 0 14 24" fill="none" xmlns="http://www.w3.org/2000/svg">
<path d="M1.32513 12.7824H3.95589V23.6129C3.95589 23.8267 4.12914 24 4.34299 24H8.80357C9.01741 24 9.19066 23.8267 9.19066 23.6129V12.8334H12.215C12.4116 12.8334 12.5771 12.6859 12.5996 12.4905L13.0589 8.50331C13.0715 8.39363 13.0368 8.28375 12.9633 8.20144C12.8899 8.11908 12.7848 8.07192 12.6744 8.07192H9.19085V5.5725C9.19085 4.81908 9.5965 4.437 10.3968 4.437C10.5108 4.437 12.6744 4.437 12.6744 4.437C12.8883 4.437 13.0615 4.26366 13.0615 4.04991V0.389953C13.0615 0.176109 12.8883 0.00285937 12.6744 0.00285937H9.53543C9.5133 0.00178125 9.46413 0 9.39166 0C8.84702 0 6.95388 0.106922 5.45843 1.48266C3.80149 3.00722 4.03183 4.83258 4.08686 5.14908V8.07183H1.32508C1.11124 8.07183 0.937988 8.24508 0.937988 8.45892V12.3953C0.938035 12.609 1.11128 12.7824 1.32513 12.7824Z" fill="white"/>
</svg>
