<svg width="16" height="16" viewBox="0 0 16 16" fill="none" xmlns="http://www.w3.org/2000/svg">
<g clip-path="url(#clip0)">
<path opacity="0.35" d="M12.6667 9.33325V5.33325L8.66667 1.33325H4C2.89533 1.33325 2 2.22859 2 3.33325V12.6666C2 13.7713 2.89533 14.6666 4 14.6666H10C10 15.4033 11.194 15.9999 12.6667 15.9999C14.1393 15.9999 15.3333 15.4033 15.3333 14.6666V10.6666C15.3333 9.92992 14.1393 9.33325 12.6667 9.33325Z" fill="black"/>
<path d="M7.88001 9.63541C7.88001 7.84275 5.90134 8.08741 5.90134 7.15275C5.90134 6.60275 6.33401 6.54475 6.48334 6.54475C6.63068 6.54475 6.76134 6.58008 6.87201 6.63008C7.13201 6.74741 7.44068 6.63875 7.60534 6.40541C7.81668 6.10675 7.70734 5.68608 7.37401 5.53608C7.19068 5.45341 6.96268 5.38741 6.68601 5.36141V5.10141C6.68601 4.86075 6.49201 4.66675 6.25268 4.66675C6.01268 4.66675 5.81868 4.86075 5.81868 5.10075V5.45275C5.09268 5.69475 4.62068 6.35941 4.62068 7.21008C4.62068 9.09141 6.57534 8.75141 6.57534 9.73008C6.57534 9.91875 6.48601 10.3287 6.00134 10.3287C5.78601 10.3287 5.60001 10.2681 5.44868 10.1887C5.19134 10.0541 4.87268 10.1534 4.70868 10.3927L4.69134 10.4181C4.50201 10.6947 4.57868 11.0827 4.87001 11.2481C5.11534 11.3874 5.41468 11.4954 5.77668 11.5334V11.8381C5.77668 12.0774 5.97068 12.2721 6.21068 12.2721C6.45001 12.2721 6.64468 12.0781 6.64468 11.8381V11.4554C7.44668 11.2094 7.88001 10.4767 7.88001 9.63541Z" fill="black"/>
<path d="M12.6667 11.9999C14.1394 11.9999 15.3333 11.403 15.3333 10.6666C15.3333 9.93021 14.1394 9.33325 12.6667 9.33325C11.1939 9.33325 10 9.93021 10 10.6666C10 11.403 11.1939 11.9999 12.6667 11.9999Z" fill="black"/>
<path d="M12.6667 13.3333C11.194 13.3333 10 12.7367 10 12V14C10 14.0133 10.0073 14.026 10.008 14.0393C10.7 14.4347 11.6167 14.6667 12.6667 14.6667C13.7167 14.6667 14.6333 14.4347 15.3253 14.0393C15.326 14.026 15.3333 14.0133 15.3333 14V12C15.3333 12.7367 14.1393 13.3333 12.6667 13.3333Z" fill="black"/>
<path d="M8.66669 3.99992V1.33325L12.6667 5.33325H10C9.26335 5.33325 8.66669 4.73659 8.66669 3.99992Z" fill="black"/>
</g>
<defs>
<clipPath id="clip0">
<rect width="16" height="16" fill="white"/>
</clipPath>
</defs>
</svg>
