<svg width="26" height="26" viewBox="0 0 26 26" fill="none" xmlns="http://www.w3.org/2000/svg">
<path opacity="0.35" d="M23.2158 14.094L21.3417 11.819C20.8108 7.0415 18.4167 2.1665 11.9167 2.1665C5.78499 2.17734 2.16666 6.6515 2.16666 12.4257C2.16666 16.5748 4.22499 18.4707 5.05916 21.3632C5.48166 22.8148 6.73832 23.8332 8.18999 23.8332C10.3794 23.8332 15.3097 23.8332 17.5392 23.8332C19.0883 23.8332 20.4219 22.739 20.7242 21.2202L21.2875 18.3948L22.5008 17.7232C23.8333 17.0082 24.1692 15.264 23.2158 14.094Z" fill="#9B1A48"/>
<path fill-rule="evenodd" clip-rule="evenodd" d="M10.374 0.314167C10.4596 0.1235 10.6492 0 10.8583 0C11.0673 0 11.258 0.1235 11.3436 0.314167L11.7433 1.20683C11.7509 1.22308 11.7607 1.23825 11.7737 1.25125C11.7867 1.26425 11.8018 1.27508 11.8181 1.28158L12.7108 1.68133C12.9025 1.76692 13.0249 1.9565 13.0249 2.16667C13.0249 2.37683 12.9014 2.56642 12.7108 2.652L11.8192 3.05175C11.8029 3.05933 11.7878 3.06908 11.7748 3.08208C11.7618 3.09508 11.7509 3.11025 11.7444 3.1265L11.3436 4.01917C11.258 4.20983 11.0684 4.33333 10.8583 4.33333C10.6492 4.33333 10.4585 4.20983 10.3729 4.01917L9.97317 3.1265C9.96667 3.11025 9.95584 3.09508 9.94284 3.08208C9.92984 3.06908 9.91467 3.05825 9.89842 3.05175L9.00684 2.652C8.81509 2.56642 8.69159 2.37575 8.69159 2.16667C8.69159 1.95758 8.81509 1.76692 9.00576 1.68133L9.89842 1.28158C9.91467 1.274 9.92984 1.26425 9.94284 1.25125C9.95584 1.23825 9.96667 1.22308 9.97317 1.20683L10.374 0.314167Z" fill="#9B1A48"/>
<path fill-rule="evenodd" clip-rule="evenodd" d="M2.79066 5.73067C2.87625 5.54 3.06583 5.4165 3.27491 5.4165C3.484 5.4165 3.67466 5.54 3.76025 5.73067L4.16 6.62334C4.16758 6.63959 4.17733 6.65475 4.19033 6.66775C4.20333 6.68075 4.2185 6.69159 4.23475 6.69809L5.12741 7.09784C5.31916 7.18342 5.44158 7.373 5.44158 7.58317C5.44158 7.79334 5.31808 7.98292 5.12741 8.0685L4.23583 8.46825C4.21958 8.47584 4.20441 8.48559 4.19141 8.49859C4.17841 8.51159 4.16758 8.52675 4.16108 8.543L3.76025 9.43567C3.67466 9.62634 3.48508 9.74984 3.27491 9.74984C3.06583 9.74984 2.87516 9.62634 2.78958 9.43567L2.38983 8.543C2.38333 8.52675 2.3725 8.51159 2.3595 8.49859C2.3465 8.48559 2.33133 8.47475 2.31508 8.46825L1.4235 8.0685C1.23175 7.98292 1.10825 7.79225 1.10825 7.58317C1.10825 7.37409 1.23175 7.18342 1.42241 7.09784L2.31508 6.69809C2.33133 6.6905 2.3465 6.68075 2.3595 6.66775C2.3725 6.65475 2.38333 6.63959 2.38983 6.62334L2.79066 5.73067Z" fill="#9B1A48"/>
<path d="M13.6922 10.3165L7.19225 2.73319C6.60833 2.05286 5.58133 1.97486 4.901 2.55769C4.21958 3.14161 4.1405 4.16861 4.72442 4.85003L11.2244 12.4334C11.5462 12.8071 12.0012 12.9999 12.4583 12.9999C12.8332 12.9999 13.2091 12.871 13.5157 12.6089C14.1971 12.0249 14.2762 10.9979 13.6922 10.3165Z" fill="#9B1A48"/>
</svg>
