<svg width="180" height="240" viewBox="0 0 180 240" fill="none" xmlns="http://www.w3.org/2000/svg">
<path d="M119.573 78.9297H115.726V230.396H119.573V78.9297Z" fill="#AD6D33"/>
<path d="M155.076 98.2311C155.321 151.195 117.938 194.304 117.938 194.304C117.938 194.304 80.1577 151.54 79.9128 98.5764C79.6679 45.6124 117.051 2.50391 117.051 2.50391C117.051 2.50391 154.831 45.2671 155.076 98.2311Z" fill="#931240"/>
<path d="M42.6539 150.197H40.6753V228.1H42.6539V150.197Z" fill="#AD6D33"/>
<path d="M60.9136 160.125C61.0395 187.366 41.8126 209.538 41.8126 209.538C41.8126 209.538 22.3815 187.544 22.2555 160.303C22.1295 133.062 41.3565 110.891 41.3565 110.891C41.3565 110.891 60.7876 132.885 60.9136 160.125Z" fill="#931240"/>
<path d="M86.0743 39.3862C81.5327 31.7369 72.5475 31.3804 72.5475 31.3804C72.5475 31.3804 63.7919 30.2644 58.1753 41.9143C52.9401 52.7731 45.7149 63.2574 57.0121 65.7994L59.0527 59.4685L60.3164 66.2707C61.9249 66.3861 63.5385 66.4135 65.15 66.3531C77.2484 65.9637 88.7702 66.467 88.3992 62.1395C87.9061 56.3867 90.4443 46.7464 86.0743 39.3862Z" fill="#151518"/>
<path d="M69.7188 53.7921C69.7188 53.7921 75.588 61.9827 72.0665 68.6133C68.5449 75.2438 80.2835 82.2643 80.2835 82.2643L88.8917 63.5429C88.8917 63.5429 78.7183 56.9124 81.4573 50.6719L69.7188 53.7921Z" fill="#FFC5C5"/>
<path d="M73.6314 57.3031C79.2501 57.3031 83.8048 52.7629 83.8048 47.1623C83.8048 41.5617 79.2501 37.0215 73.6314 37.0215C68.0128 37.0215 63.458 41.5617 63.458 47.1623C63.458 52.7629 68.0128 57.3031 73.6314 57.3031Z" fill="#FFC5C5"/>
<path d="M38.4233 58.8861L46.9252 47.9521C46.9252 47.9521 49.9188 36.4911 54.2545 37.0721C58.5901 37.6532 52.542 50.8168 52.542 50.8168L44.0943 62.9196L38.4233 58.8861Z" fill="#FFC5C5"/>
<path d="M81.457 204.344L84.196 218.775L90.0653 220.335L88.5002 203.174L81.457 204.344Z" fill="#FFC5C5"/>
<path d="M140.542 188.743L151.106 203.174L155.41 205.125L158.932 199.274L148.367 185.623L140.542 188.743Z" fill="#FFC5C5"/>
<path d="M79.1093 76.025L72.5822 67.4602C72.5822 67.4602 59.9363 69.7845 58.7624 70.9546C57.5886 72.1247 61.8927 93.5764 61.8927 93.5764C61.8927 93.5764 62.6753 99.4268 66.1968 102.547L69.7184 104.887L98.6736 99.0368L99.7623 86.1947C100.159 81.5172 99.5708 76.8086 98.0357 72.3708C96.5006 67.933 94.0523 63.8637 90.8479 60.4238L85.8098 61.1104L79.1093 76.025Z" fill="#38111F"/>
<path d="M60.3276 71.7336L58.3712 70.9535L49.3716 70.1735C49.3716 70.1735 46.2414 69.3934 47.0239 67.8333C47.8065 66.2732 48.5891 65.8831 47.0239 65.4931C45.4588 65.1031 45.0675 64.713 45.4588 63.543C45.8501 62.3729 48.1978 60.0327 48.1978 60.0327L41.5459 54.5723C41.5459 54.5723 41.1859 54.8261 40.604 55.2957C37.3014 57.9611 26.8514 67.5776 34.5028 77.194C43.5024 88.5049 54.0671 95.1354 62.6753 92.7952L60.3276 71.7336Z" fill="#38111F"/>
<path d="M68.9359 102.935V108.396C68.9359 108.396 65.4143 115.026 66.5882 121.267C67.7621 127.507 68.1533 130.628 68.1533 130.628C68.2811 135.935 69.2043 141.194 70.8923 146.229C73.6313 154.029 64.6318 205.123 75.979 205.903C87.3263 206.683 93.5869 207.464 97.1085 203.563C100.63 199.663 91.2392 132.578 91.2392 132.578C91.2392 132.578 123.325 199.273 129.976 196.543C136.628 193.812 153.454 187.572 151.497 184.062C149.541 180.551 100.239 102.545 100.239 102.545L98.6736 99.0352L68.9359 102.935Z" fill="#151518"/>
<path d="M87.7176 216.046C87.7176 216.046 81.457 215.655 81.457 217.606C81.457 219.556 78.3267 226.186 78.3267 226.186C78.3267 226.186 75.979 233.987 82.2396 233.207C88.5001 232.427 92.413 225.406 92.413 225.406L90.8478 217.996L87.7176 216.046Z" fill="#151518"/>
<path d="M153.062 202.394C153.062 202.394 147.584 198.884 147.976 201.224C148.367 203.564 148.758 209.805 151.497 210.195C154.236 210.585 162.453 212.925 162.844 213.705C163.236 214.485 172.627 217.605 172.627 212.535C172.627 207.465 166.757 203.564 166.757 203.564L160.105 198.494C160.105 198.494 155.801 198.104 155.019 200.834C154.236 203.564 153.062 202.394 153.062 202.394Z" fill="#151518"/>
<path d="M73.8279 35.7769C77.7002 35.7769 80.8394 32.6377 80.8394 28.7654C80.8394 24.8931 77.7002 21.7539 73.8279 21.7539C69.9556 21.7539 66.8164 24.8931 66.8164 28.7654C66.8164 32.6377 69.9556 35.7769 73.8279 35.7769Z" fill="#151518"/>
<path d="M84.0665 38.6507L75.1898 34.0156L62.9308 35.912L60.3945 47.0777C60.3945 47.0777 65.5097 48.0679 66.8175 45.9755C70.0045 40.8762 72.2889 40.8458 75.1898 40.8762C79.2349 40.9187 84.4895 46.8671 84.4895 46.8671L84.0665 38.6507Z" fill="#151518"/>
<path d="M83.5346 103.84L69.8446 104.209C69.8446 104.209 58.1632 106.475 58.8186 101.775C59.474 97.0754 70.87 98.7191 70.87 98.7191L83.3442 96.8223L83.5346 103.84Z" fill="#FFC5C5"/>
<path d="M94.3661 59.7613C95.0542 59.6575 95.7569 59.8019 96.3477 60.1686C96.9384 60.5352 97.3785 61.1001 97.5886 61.7614C100.269 70.1798 108.525 98.3515 100.322 102.216C90.6597 106.769 83.6086 106.569 83.6086 106.569L79.8345 97.3062L83.2702 94.0922L86.9382 70.583L88.6959 60.6175L94.3661 59.7613Z" fill="#38111F"/>
<path opacity="0.4" d="M91.8261 75.4395L90.261 91.0407L76.5659 96.8911L91.8261 93.3808V75.4395Z" fill="black"/>
<path d="M17.9689 23.9336C22.3799 25.0987 26.1963 27.8621 28.6715 31.6833L29.9514 33.6591L30.0158 33.7408L52.4697 40.29C52.8813 40.41 53.2292 40.6863 53.4385 41.0594C53.6478 41.4325 53.7019 41.8726 53.5891 42.285L51.8458 48.6562C51.7891 48.8637 51.6917 49.058 51.5592 49.2279C51.4268 49.3977 51.2621 49.5398 51.0743 49.6459C50.8866 49.7521 50.6797 49.8202 50.4655 49.8463C50.2513 49.8724 50.0341 49.856 49.8262 49.7981L27.3667 43.5405L27.3662 43.5412L25.1105 44.3912C20.9569 45.9565 16.401 46.1109 12.1504 44.8303L17.9689 23.9336Z" fill="#22212F"/>
<path d="M41.6159 42.4128C41.8286 41.6883 40.8962 40.7788 39.5335 40.3813C38.1707 39.9839 36.8936 40.2489 36.681 40.9734C36.4683 41.6979 37.4006 42.6074 38.7634 43.0048C40.1261 43.4023 41.4032 43.1372 41.6159 42.4128Z" fill="black"/>
<path d="M40.469 43.0785C40.9896 43.0785 41.4116 42.6578 41.4116 42.1389C41.4116 41.6199 40.9896 41.1992 40.469 41.1992C39.9484 41.1992 39.5264 41.6199 39.5264 42.1389C39.5264 42.6578 39.9484 43.0785 40.469 43.0785Z" fill="#22212F"/>
<path opacity="0.4" d="M19.1487 35.8003C20.9529 30.2542 20.4622 25.0854 18.0879 23.9609C18.2308 23.9787 18.3717 24.0098 18.5088 24.0538C21.12 24.8978 21.719 30.248 19.8466 36.0039C17.9742 41.7598 14.3395 45.7416 11.7282 44.8976C11.6336 44.8667 11.541 44.8297 11.4512 44.7869C14.0197 45.1129 17.3749 41.253 19.1487 35.8003Z" fill="black"/>
<path d="M19.8465 36.0017C21.7189 30.2458 21.1199 24.8956 18.5087 24.0516C15.8974 23.2076 12.2627 27.1894 10.3903 32.9453C8.51789 38.7011 9.11683 44.0514 11.7281 44.8954C14.3393 45.7394 17.9741 41.7575 19.8465 36.0017Z" fill="#494846"/>
</svg>
