<svg width="22" height="22" viewBox="0 0 22 22" fill="none" xmlns="http://www.w3.org/2000/svg">
<path d="M14.4577 5.4498L18.0212 2.5324C16.1162 0.950724 13.669 0 11 0C6.7487 0 3.06073 2.41151 1.23 5.94114C0.443675 7.45575 0 9.17587 0 10.9999C0 12.8863 0.474459 14.6613 1.31093 16.2128C3.16885 19.6585 6.81097 22 11 22C13.6067 22 16.0014 21.0934 17.8865 19.5782C19.8247 18.0201 21.224 15.8182 21.7595 13.2967C21.9172 12.5557 22 11.7875 22 11C22 10.2976 21.9341 9.61045 21.8078 8.94503H11.2419V13.2967H17.1238C16.5944 14.7097 15.5893 15.8901 14.3031 16.6444C13.3343 17.2131 12.2052 17.539 11 17.539C8.19623 17.539 5.80464 15.7741 4.8757 13.2949C4.60737 12.5812 4.46104 11.8074 4.46095 10.9999C4.46095 10.2559 4.58548 9.54093 4.81394 8.87487C5.69634 6.30676 8.13275 4.46101 11 4.46101C12.2698 4.46101 13.455 4.82306 14.4577 5.4498Z" fill="white"/>
</svg>
