<svg width="14" height="14" viewBox="0 0 14 14" fill="none" xmlns="http://www.w3.org/2000/svg">
<path d="M6.99995 1.68125C7.00112 1.39659 6.77012 1.16559 6.48545 1.16675L3.38095 1.18075C2.96679 1.1825 2.76087 1.683 3.0537 1.97584L6.19029 5.11242C6.48312 5.40525 6.98362 5.19934 6.98537 4.78517L6.99995 1.68125Z" fill="black"/>
<path opacity="0.35" d="M3.49996 12.2499H2.33329C1.68871 12.2499 1.16663 11.7278 1.16663 11.0833V10.4999C1.16663 9.85534 1.68871 9.33325 2.33329 9.33325H3.49996C4.14454 9.33325 4.66663 9.85534 4.66663 10.4999V11.0833C4.66663 11.7278 4.14454 12.2499 3.49996 12.2499Z" fill="black"/>
<path opacity="0.35" d="M7.58333 12.2501H6.41667C5.77208 12.2501 5.25 11.728 5.25 11.0834V7.58341C5.25 6.93883 5.77208 6.41675 6.41667 6.41675H7.58333C8.22792 6.41675 8.75 6.93883 8.75 7.58341V11.0834C8.75 11.728 8.22792 12.2501 7.58333 12.2501Z" fill="black"/>
<path opacity="0.35" d="M11.6667 12.2501H10.5C9.85546 12.2501 9.33337 11.728 9.33337 11.0834V2.33341C9.33337 1.68883 9.85546 1.16675 10.5 1.16675H11.6667C12.3113 1.16675 12.8334 1.68883 12.8334 2.33341V11.0834C12.8334 11.728 12.3113 12.2501 11.6667 12.2501Z" fill="black"/>
<path d="M2.20387 7.00012C1.93845 7.00012 1.67303 6.89862 1.47062 6.6962C1.06578 6.29137 1.06578 5.63453 1.47062 5.2297L4.06295 2.63737C4.46778 2.23253 5.12462 2.23253 5.52945 2.63737C5.93428 3.0422 5.93428 3.69903 5.52945 4.10387L2.93712 6.6962C2.7347 6.89862 2.46928 7.00012 2.20387 7.00012Z" fill="black"/>
</svg>
