<svg width="14" height="14" viewBox="0 0 14 14" fill="none" xmlns="http://www.w3.org/2000/svg">
<path d="M7.06708 4.69404C7.35933 4.98629 9.13092 6.46037 9.254 6.58345C9.37708 6.70595 9.53692 6.76662 9.69792 6.76662C9.85833 6.76662 10.0187 6.70537 10.1418 6.58345C10.2649 6.46037 12.0365 4.98629 12.3288 4.69404C13.0019 4.02087 13.0019 2.92887 12.3288 2.25512C11.6556 1.58195 10.5636 1.58195 9.89042 2.25512C9.8175 2.32804 9.75625 2.40795 9.69908 2.48962C9.64192 2.40795 9.58067 2.32804 9.50775 2.25512C8.83458 1.58195 7.74258 1.58195 7.06942 2.25512C6.39392 2.92829 6.39392 4.0197 7.06708 4.69404Z" fill="black"/>
<path opacity="0.35" d="M11.6282 10.0106C11.4544 9.48965 10.8833 9.21607 10.3682 9.4074L8.55579 10.0537C8.33879 10.1313 8.10779 10.1605 7.87854 10.1401C7.36871 10.094 6.87812 9.9219 6.45171 9.6384L5.65371 9.10815C5.15729 8.81824 5.36671 8.16432 5.88121 8.16432L6.75971 8.16957C7.50696 8.15032 8.12471 7.7134 8.21046 6.9714C8.24487 6.67915 8.01796 6.4219 7.72337 6.41724H3.50004C3.19612 6.41724 2.86187 6.43765 2.58887 6.50532L1.24487 6.82324C0.856957 6.91424 0.583374 7.26015 0.583374 7.65857V11.0425C0.583374 11.4012 0.933957 11.6556 1.27521 11.5442L2.13329 11.2636C2.64487 11.0967 3.19612 11.0979 3.70654 11.2682L7.28821 12.4623C7.85812 12.6519 8.47996 12.6076 9.01721 12.3392L11.1411 11.1866C11.5734 10.9702 11.781 10.4691 11.6282 10.0106Z" fill="black"/>
</svg>
