<svg width="16" height="16" viewBox="0 0 16 16" fill="none" xmlns="http://www.w3.org/2000/svg">
<path d="M11.6987 1.00292L9.77987 1C7.62417 1 6.23103 2.35233 6.23103 4.44544V6.034H4.30172C4.13501 6.034 4 6.16188 4 6.31962V8.62132C4 8.77901 4.13516 8.90671 4.30172 8.90671H6.23103V14.7146C6.23103 14.8723 6.36603 15 6.53275 15H9.04998C9.21663 15 9.35171 14.8722 9.35171 14.7146V8.90671H11.6075C11.7742 8.90671 11.9092 8.77901 11.9092 8.62132L11.9101 6.31962C11.9101 6.24388 11.8783 6.17135 11.8217 6.11776C11.7653 6.06416 11.6883 6.034 11.6082 6.034H9.35171V4.68735C9.35171 4.04009 9.51472 3.71151 10.4058 3.71151L11.6985 3.71108C11.865 3.71108 12 3.5832 12 3.42561V1.28839C12 1.13094 11.8652 1.00321 11.6987 1.00292Z" fill="white"/>
</svg>
