<svg width="16" height="16" viewBox="0 0 16 16" fill="none" xmlns="http://www.w3.org/2000/svg">
<path d="M11.584 0H4.416C3.24513 0.00105913 2.12252 0.466655 1.29459 1.29459C0.466655 2.12252 0.00105913 3.24513 0 4.416L0 11.584C0.00105913 12.7549 0.466655 13.8775 1.29459 14.7054C2.12252 15.5333 3.24513 15.9989 4.416 16H11.584C12.7548 15.9987 13.8773 15.5331 14.7052 14.7052C15.5331 13.8773 15.9987 12.7548 16 11.584V4.416C15.9989 3.24513 15.5333 2.12252 14.7054 1.29459C13.8775 0.466655 12.7549 0.00105913 11.584 0V0ZM14.58 11.584C14.5789 12.3781 14.2631 13.1394 13.7016 13.701C13.1402 14.2626 12.3789 14.5787 11.5848 14.58H4.4152C3.62101 14.5792 2.85958 14.2633 2.29793 13.7018C1.73627 13.1403 1.42026 12.379 1.4192 11.5848V4.4152C1.42005 3.62073 1.73608 2.85906 2.29793 2.29736C2.85978 1.73566 3.62153 1.41984 4.416 1.4192H11.5848C12.3791 1.42026 13.1405 1.73625 13.7021 2.29788C14.2638 2.85951 14.5797 3.62094 14.5808 4.4152V11.5848L14.58 11.584Z" fill="white"/>
<path d="M7.99997 3.87783C6.90696 3.8791 5.85906 4.3138 5.08611 5.08661C4.31316 5.85941 3.87825 6.90722 3.87677 8.00023C3.87825 9.09324 4.31316 10.141 5.08611 10.9139C5.85906 11.6867 6.90696 12.1214 7.99997 12.1226C9.09284 12.1211 10.1405 11.6863 10.9133 10.9136C11.6861 10.1408 12.1209 9.0931 12.1224 8.00023C12.1209 6.90735 11.6861 5.85967 10.9133 5.08689C10.1405 4.31411 9.09284 3.87931 7.99997 3.87783ZM7.99997 10.7034C7.28316 10.7028 6.59588 10.4178 6.08894 9.91103C5.582 9.40424 5.29682 8.71704 5.29597 8.00023C5.29682 7.28342 5.582 6.59622 6.08894 6.08943C6.59588 5.58264 7.28316 5.29766 7.99997 5.29703C8.71664 5.29787 9.40372 5.58295 9.91049 6.08971C10.4173 6.59648 10.7023 7.28355 10.7032 8.00023C10.7023 8.71704 10.4171 9.40424 9.9102 9.91103C9.40326 10.4178 8.71598 10.7028 7.99917 10.7034H7.99997ZM12.296 2.67383C12.0201 2.67467 11.7558 2.78457 11.5607 2.97955C11.3655 3.17454 11.2554 3.43878 11.2544 3.71463C11.2558 3.99042 11.3661 4.25451 11.5611 4.44952C11.7561 4.64454 12.0202 4.75476 12.296 4.75623C12.5704 4.75623 12.8384 4.64423 13.032 4.45143C13.226 4.25562 13.3349 3.9911 13.3349 3.71543C13.3349 3.43976 13.226 3.17524 13.032 2.97943C12.8366 2.7844 12.572 2.67454 12.296 2.67383Z" fill="white"/>
</svg>
