<svg width="24" height="24" viewBox="0 0 24 24" fill="none" xmlns="http://www.w3.org/2000/svg">
<path opacity="0.35" d="M20.75 11.219C20.75 5.13598 16.623 3.16098 16.447 3.07998C16.071 2.90598 15.63 3.06898 15.456 3.44298C15.28 3.81698 15.442 4.26198 15.814 4.43898C15.955 4.50598 19.25 6.13098 19.25 11.218C19.25 16.973 16.204 17.743 13.26 18.489C12.83 18.598 12.407 18.705 12 18.827C11.594 18.705 11.17 18.597 10.74 18.489C7.796 17.744 4.75 16.973 4.75 11.218C4.75 6.13098 8.045 4.50598 8.182 4.44098C8.558 4.26798 8.722 3.82198 8.548 3.44598C8.375 3.06898 7.926 2.90598 7.553 3.07998C7.377 3.16098 3.25 5.13598 3.25 11.219C3.25 17.807 6.976 19.067 9.927 19.829C9.585 20.11 9.293 20.448 9.084 20.883C8.904 21.256 9.062 21.704 9.435 21.884C9.539 21.935 9.651 21.958 9.759 21.958C10.038 21.958 10.307 21.802 10.436 21.533C10.694 20.996 11.265 20.666 12 20.406C12.735 20.666 13.306 20.996 13.564 21.533C13.693 21.802 13.961 21.958 14.241 21.958C14.349 21.958 14.461 21.935 14.565 21.884C14.938 21.704 15.095 21.256 14.916 20.883C14.707 20.449 14.415 20.111 14.073 19.829C17.024 19.067 20.75 17.806 20.75 11.219Z" fill="#BF255C"/>
<path d="M16.861 2.65606C17.534 3.18106 17.864 3.99506 18.024 4.60106C18.14 5.04106 17.811 5.46306 17.355 5.45706C16.729 5.44906 15.859 5.32606 15.187 4.80106C14.514 4.27606 14.184 3.46206 14.024 2.85606C13.907 2.41606 14.236 1.99406 14.692 2.00006C15.318 2.00806 16.188 2.13106 16.861 2.65606Z" fill="#BF255C"/>
<path d="M21.513 6.81506C21.178 7.60006 20.476 8.12806 19.931 8.43706C19.535 8.66206 19.043 8.45206 18.932 8.01006C18.78 7.40206 18.676 6.53006 19.011 5.74606C19.346 4.96106 20.048 4.43306 20.593 4.12406C20.989 3.89906 21.481 4.10906 21.592 4.55106C21.744 5.15806 21.848 6.03006 21.513 6.81506Z" fill="#BF255C"/>
<path d="M18.14 6.13706C18.949 6.40806 19.531 7.06606 19.884 7.58406C20.14 7.96106 19.97 8.46806 19.538 8.61406C18.944 8.81506 18.083 8.98806 17.275 8.71706C16.466 8.44606 15.883 7.78806 15.531 7.27006C15.275 6.89306 15.445 6.38606 15.876 6.24006C16.47 6.03906 17.331 5.86606 18.14 6.13706Z" fill="#BF255C"/>
<path d="M22.288 12.0821C21.686 12.6861 20.838 12.9161 20.217 13.0021C19.766 13.0641 19.387 12.6861 19.448 12.2351C19.532 11.6141 19.759 10.7661 20.361 10.1621C20.963 9.55706 21.811 9.32806 22.432 9.24206C22.883 9.18006 23.262 9.55806 23.201 10.0091C23.118 10.6291 22.891 11.4781 22.288 12.0821Z" fill="#BF255C"/>
<path d="M19.408 10.2021C20.059 10.7541 20.355 11.5811 20.49 12.1931C20.588 12.6381 20.242 13.0461 19.787 13.0211C19.161 12.9871 18.297 12.8291 17.647 12.2771C16.996 11.7251 16.699 10.8981 16.564 10.2861C16.466 9.84106 16.812 9.43306 17.267 9.45806C17.894 9.49206 18.758 9.65006 19.408 10.2021Z" fill="#BF255C"/>
<path d="M20.657 17.1991C19.846 17.4651 18.986 17.2841 18.394 17.0791C17.964 16.9301 17.797 16.4211 18.056 16.0461C18.412 15.5311 19 14.8781 19.81 14.6131C20.621 14.3471 21.481 14.5281 22.073 14.7331C22.503 14.8821 22.67 15.3911 22.411 15.7651C22.055 16.2811 21.468 16.9341 20.657 17.1991Z" fill="#BF255C"/>
<path d="M18.943 14.2171C19.273 15.0041 19.162 15.8761 19.005 16.4821C18.891 16.9231 18.397 17.1291 18.003 16.9011C17.461 16.5871 16.763 16.0541 16.434 15.2671C16.104 14.4801 16.215 13.6081 16.373 13.0021C16.487 12.5611 16.981 12.3551 17.375 12.5831C17.916 12.8971 18.613 13.4301 18.943 14.2171Z" fill="#BF255C"/>
<path d="M16.743 20.6801C15.892 20.6241 15.161 20.1351 14.689 19.7241C14.345 19.4251 14.381 18.8911 14.761 18.6401C15.284 18.2951 16.073 17.9081 16.924 17.9651C17.775 18.0211 18.506 18.5101 18.979 18.9211C19.322 19.2201 19.287 19.7541 18.907 20.0051C18.383 20.3501 17.594 20.7361 16.743 20.6801Z" fill="#BF255C"/>
<path d="M16.266 17.2731C16.278 18.1261 15.85 18.8931 15.477 19.3971C15.206 19.7631 14.671 19.7711 14.391 19.4121C14.005 18.9181 13.557 18.1631 13.545 17.3101C13.533 16.4571 13.961 15.6891 14.334 15.1851C14.605 14.8191 15.14 14.8111 15.42 15.1701C15.806 15.6651 16.255 16.4201 16.266 17.2731Z" fill="#BF255C"/>
<path d="M9.30797 2.00006C9.76297 1.99406 10.093 2.41606 9.97597 2.85606C9.81597 3.46206 9.48597 4.27606 8.81297 4.80106C8.14097 5.32606 7.27197 5.44906 6.64497 5.45706C6.18997 5.46306 5.85997 5.04206 5.97597 4.60106C6.13597 3.99506 6.46597 3.18106 7.13897 2.65606C7.81197 2.13106 8.68197 2.00806 9.30797 2.00006Z" fill="#BF255C"/>
<path d="M2.40897 4.55006C2.51997 4.10806 3.01197 3.89806 3.40797 4.12306C3.95297 4.43306 4.65497 4.96106 4.98997 5.74506C5.32497 6.53006 5.22097 7.40206 5.06797 8.01006C4.95797 8.45206 4.46597 8.66206 4.06997 8.43706C3.52497 8.12706 2.82297 7.59906 2.48797 6.81506C2.15197 6.03006 2.25597 5.15806 2.40897 4.55006Z" fill="#BF255C"/>
<path d="M8.12297 6.24006C8.55397 6.38606 8.72497 6.89306 8.46797 7.27006C8.11597 7.78806 7.53397 8.44606 6.72397 8.71706C5.91597 8.98806 5.05397 8.81506 4.46097 8.61406C4.02997 8.46906 3.85997 7.96106 4.11597 7.58506C4.46797 7.06606 5.05097 6.40806 5.85997 6.13706C6.66897 5.86606 7.52997 6.03906 8.12297 6.24006Z" fill="#BF255C"/>
<path d="M0.797974 10.0091C0.736974 9.55706 1.11597 9.17906 1.56797 9.24206C2.18897 9.32806 3.03697 9.55706 3.63897 10.1621C4.24097 10.7661 4.46797 11.6141 4.55197 12.2351C4.61297 12.6861 4.23397 13.0641 3.78297 13.0021C3.16197 12.9161 2.31397 12.6871 1.71197 12.0821C1.10897 11.4781 0.881974 10.6291 0.797974 10.0091Z" fill="#BF255C"/>
<path d="M6.73197 9.45806C7.18697 9.43306 7.53297 9.84106 7.43497 10.2861C7.29997 10.8981 7.00297 11.7251 6.35197 12.2771C5.70197 12.8291 4.83797 12.9871 4.21197 13.0211C3.75697 13.0461 3.41097 12.6381 3.50897 12.1931C3.64397 11.5811 3.94097 10.7541 4.59097 10.2021C5.24197 9.65006 6.10597 9.49206 6.73197 9.45806Z" fill="#BF255C"/>
<path d="M1.58897 15.7661C1.32997 15.3911 1.49597 14.8831 1.92697 14.7341C2.51897 14.5291 3.37897 14.3481 4.18997 14.6141C4.99997 14.8791 5.58797 15.5321 5.94397 16.0471C6.20297 16.4221 6.03697 16.9301 5.60597 17.0801C5.01397 17.2851 4.15397 17.4661 3.34297 17.2001C2.53197 16.9341 1.94497 16.2811 1.58897 15.7661Z" fill="#BF255C"/>
<path d="M6.62697 12.5831C7.02097 12.3551 7.51498 12.5611 7.62897 13.0021C7.78597 13.6091 7.89697 14.4801 7.56797 15.2671C7.23897 16.0541 6.54097 16.5871 5.99897 16.9011C5.60497 17.1291 5.11097 16.9231 4.99697 16.4821C4.83997 15.8751 4.72897 15.0041 5.05897 14.2171C5.38697 13.4301 6.08397 12.8971 6.62697 12.5831Z" fill="#BF255C"/>
<path d="M5.09397 20.0051C4.71397 19.7541 4.67797 19.2201 5.02197 18.9211C5.49497 18.5091 6.22497 18.0211 7.07697 17.9651C7.92797 17.9081 8.71697 18.2951 9.23997 18.6401C9.61997 18.8911 9.65597 19.4251 9.31197 19.7241C8.83897 20.1361 8.10897 20.6241 7.25797 20.6801C6.40597 20.7361 5.61697 20.3501 5.09397 20.0051Z" fill="#BF255C"/>
<path d="M8.57997 15.1711C8.86097 14.8121 9.39497 14.8191 9.66597 15.1861C10.038 15.6901 10.467 16.4571 10.455 17.3111C10.443 18.1641 9.99497 18.9191 9.60897 19.4131C9.32897 19.7721 8.79397 19.7651 8.52297 19.3981C8.15097 18.8941 7.72197 18.1271 7.73397 17.2741C7.74498 16.4201 8.19397 15.6651 8.57997 15.1711Z" fill="#BF255C"/>
</svg>
