<svg width="24" height="24" viewBox="0 0 24 24" fill="none" xmlns="http://www.w3.org/2000/svg">
<path opacity="0.35" d="M6 7C7.38071 7 8.5 5.88071 8.5 4.5C8.5 3.11929 7.38071 2 6 2C4.61929 2 3.5 3.11929 3.5 4.5C3.5 5.88071 4.61929 7 6 7Z" fill="#6D5555"/>
<path d="M9 18C9 17.448 8.552 17 8 17C7.448 17 7 17.448 7 18C7 18.186 7 20.814 7 21C7 21.552 7.448 22 8 22C8.552 22 9 21.552 9 21C9 20.814 9 18.186 9 18Z" fill="#6D5555"/>
<path d="M5 18C5 17.448 4.552 17 4 17C3.448 17 3 17.448 3 18C3 18.186 3 20.814 3 21C3 21.552 3.448 22 4 22C4.552 22 5 21.552 5 21C5 20.814 5 18.186 5 18Z" fill="#6D5555"/>
<path d="M2 11V16.5C2 17.328 2.672 18 3.5 18H5C5 17.448 5.448 17 6 17C6.552 17 7 17.448 7 18H9V11C9 9.343 7.657 8 6 8H5C3.343 8 2 9.343 2 11Z" fill="#6D5555"/>
<path opacity="0.35" d="M18 7C19.3807 7 20.5 5.88071 20.5 4.5C20.5 3.11929 19.3807 2 18 2C16.6193 2 15.5 3.11929 15.5 4.5C15.5 5.88071 16.6193 7 18 7Z" fill="#6D5555"/>
<path d="M15 18C15 17.448 15.448 17 16 17C16.552 17 17 17.448 17 18C17 18.186 17 20.814 17 21C17 21.552 16.552 22 16 22C15.448 22 15 21.552 15 21C15 20.814 15 18.186 15 18Z" fill="#6D5555"/>
<path d="M19 18C19 17.448 19.448 17 20 17C20.552 17 21 17.448 21 18C21 18.186 21 20.814 21 21C21 21.552 20.552 22 20 22C19.448 22 19 21.552 19 21C19 20.814 19 18.186 19 18Z" fill="#6D5555"/>
<path d="M22 11V16.5C22 17.328 21.328 18 20.5 18H19C19 17.448 18.552 17 18 17C17.448 17 17 17.448 17 18H15V11C15 9.343 16.343 8 18 8H19C20.657 8 22 9.343 22 11Z" fill="#6D5555"/>
<path d="M12 16C11.706 16 11.427 15.871 11.237 15.646L6.74997 10.353C6.39197 9.93196 6.44397 9.30096 6.86597 8.94296C7.28797 8.58696 7.91797 8.63896 8.27497 9.05996L12 13.453L15.725 9.05896C16.082 8.63696 16.712 8.58496 17.134 8.94296C17.555 9.29996 17.608 9.93096 17.25 10.352L12.762 15.646C12.573 15.871 12.294 16 12 16Z" fill="#6D5555"/>
</svg>
