<svg width="22" height="22" viewBox="0 0 22 22" fill="none" xmlns="http://www.w3.org/2000/svg">
<path d="M14.2221 10.2144L9.63875 7.46441C9.49967 7.38085 9.34091 7.3357 9.17868 7.33357C9.01645 7.33145 8.85656 7.37242 8.71534 7.4523C8.57412 7.53219 8.45663 7.64812 8.37488 7.78827C8.29312 7.92841 8.25003 8.08774 8.25 8.24999V13.75C8.24987 13.9123 8.29284 14.0718 8.37453 14.212C8.45622 14.3523 8.57369 14.4684 8.71494 14.5484C8.85618 14.6284 9.01614 14.6694 9.17845 14.6673C9.34076 14.6652 9.49961 14.6201 9.63875 14.5365L14.2221 11.7865C14.3578 11.705 14.4702 11.5898 14.5482 11.4521C14.6261 11.3143 14.6671 11.1587 14.6671 11.0004C14.6671 10.8421 14.6261 10.6866 14.5482 10.5488C14.4702 10.4111 14.3578 10.2958 14.2221 10.2144Z" fill="#782A46"/>
<path opacity="0.35" d="M17.4167 3.6665H4.58334C3.06456 3.6665 1.83334 4.89772 1.83334 6.4165V15.5832C1.83334 17.102 3.06456 18.3332 4.58334 18.3332H17.4167C18.9355 18.3332 20.1667 17.102 20.1667 15.5832V6.4165C20.1667 4.89772 18.9355 3.6665 17.4167 3.6665Z" fill="#782A46"/>
</svg>
