<svg width="24" height="24" viewBox="0 0 24 24" fill="none" xmlns="http://www.w3.org/2000/svg">
<path opacity="0.35" d="M19 24C21.7614 24 24 21.7614 24 19C24 16.2386 21.7614 14 19 14C16.2386 14 14 16.2386 14 19C14 21.7614 16.2386 24 19 24Z" fill="#BF255C"/>
<path opacity="0.35" d="M12 12C14.7614 12 17 9.76142 17 7C17 4.23858 14.7614 2 12 2C9.23858 2 7 4.23858 7 7C7 9.76142 9.23858 12 12 12Z" fill="#BF255C"/>
<path d="M18 21.5V16.5C18 15.948 18.448 15.5 19 15.5C19.552 15.5 20 15.948 20 16.5V21.5C20 22.052 19.552 22.5 19 22.5C18.448 22.5 18 22.052 18 21.5Z" fill="#BF255C"/>
<path d="M16.5 18H21.5C22.052 18 22.5 18.448 22.5 19C22.5 19.552 22.052 20 21.5 20H16.5C15.948 20 15.5 19.552 15.5 19C15.5 18.448 15.948 18 16.5 18Z" fill="#BF255C"/>
<path d="M14 19C14 17.357 14.804 15.911 16.027 15H6C4.343 15 3 16.343 3 18C3 19.657 4.343 21 6 21H14.422C14.154 20.387 14 19.712 14 19Z" fill="#BF255C"/>
</svg>
