<svg width="24" height="24" viewBox="0 0 24 24" fill="none" xmlns="http://www.w3.org/2000/svg">
<path d="M9 0.75L0 9.75L9 18.75L18 9.75L9 0.75ZM9 2.85059L15.8994 9.75L9 16.6494L2.10059 9.75L9 2.85059ZM9 6C8.80109 6 8.61032 6.07902 8.46967 6.21967C8.32902 6.36032 8.25 6.55109 8.25 6.75C8.25 6.94891 8.32902 7.13968 8.46967 7.28033C8.61032 7.42098 8.80109 7.5 9 7.5C9.19891 7.5 9.38968 7.42098 9.53033 7.28033C9.67098 7.13968 9.75 6.94891 9.75 6.75C9.75 6.55109 9.67098 6.36032 9.53033 6.21967C9.38968 6.07902 9.19891 6 9 6ZM6 9C5.80109 9 5.61032 9.07902 5.46967 9.21967C5.32902 9.36032 5.25 9.55109 5.25 9.75C5.25 9.94891 5.32902 10.1397 5.46967 10.2803C5.61032 10.421 5.80109 10.5 6 10.5C6.19891 10.5 6.38968 10.421 6.53033 10.2803C6.67098 10.1397 6.75 9.94891 6.75 9.75C6.75 9.55109 6.67098 9.36032 6.53033 9.21967C6.38968 9.07902 6.19891 9 6 9ZM9 9C8.80109 9 8.61032 9.07902 8.46967 9.21967C8.32902 9.36032 8.25 9.55109 8.25 9.75C8.25 9.94891 8.32902 10.1397 8.46967 10.2803C8.61032 10.421 8.80109 10.5 9 10.5C9.19891 10.5 9.38968 10.421 9.53033 10.2803C9.67098 10.1397 9.75 9.94891 9.75 9.75C9.75 9.55109 9.67098 9.36032 9.53033 9.21967C9.38968 9.07902 9.19891 9 9 9ZM12 9C11.8011 9 11.6103 9.07902 11.4697 9.21967C11.329 9.36032 11.25 9.55109 11.25 9.75C11.25 9.94891 11.329 10.1397 11.4697 10.2803C11.6103 10.421 11.8011 10.5 12 10.5C12.1989 10.5 12.3897 10.421 12.5303 10.2803C12.671 10.1397 12.75 9.94891 12.75 9.75C12.75 9.55109 12.671 9.36032 12.5303 9.21967C12.3897 9.07902 12.1989 9 12 9ZM20.1006 9.75L18.6006 11.25H22.5V20.25H13.5V16.3506L12 17.8506V21.75H24V9.75H20.1006ZM9 12C8.80109 12 8.61032 12.079 8.46967 12.2197C8.32902 12.3603 8.25 12.5511 8.25 12.75C8.25 12.9489 8.32902 13.1397 8.46967 13.2803C8.61032 13.421 8.80109 13.5 9 13.5C9.19891 13.5 9.38968 13.421 9.53033 13.2803C9.67098 13.1397 9.75 12.9489 9.75 12.75C9.75 12.5511 9.67098 12.3603 9.53033 12.2197C9.38968 12.079 9.19891 12 9 12ZM18 15C17.8011 15 17.6103 15.079 17.4697 15.2197C17.329 15.3603 17.25 15.5511 17.25 15.75C17.25 15.9489 17.329 16.1397 17.4697 16.2803C17.6103 16.421 17.8011 16.5 18 16.5C18.1989 16.5 18.3897 16.421 18.5303 16.2803C18.671 16.1397 18.75 15.9489 18.75 15.75C18.75 15.5511 18.671 15.3603 18.5303 15.2197C18.3897 15.079 18.1989 15 18 15Z" fill="#9B1A48"/>
</svg>
