<svg width="24" height="24" viewBox="0 0 24 24" fill="none" xmlns="http://www.w3.org/2000/svg">
<g clip-path="url(#clip0)">
<path opacity="0.35" d="M21.026 15.563C20.692 15.367 20.4 14.201 20.4 14.201C20.269 14.162 20.134 14.141 20 14.113V5C20 3.343 18.657 2 17 2H7C5.343 2 4 3.343 4 5V19C4 20.657 5.343 22 7 22H16.378C17.081 22.616 17.992 23.001 19 23.001C21.209 23.001 23 21.21 23 19.001C23 17.533 22.206 16.256 21.026 15.563Z" fill="#6D5555"/>
<path d="M14.5 4H9.5C8.671 4 8 3.328 8 2.5C8 1.672 8.671 1 9.5 1H14.5C15.329 1 16 1.672 16 2.5C16 3.328 15.329 4 14.5 4Z" fill="#6D5555"/>
<path d="M16 9H8C7.448 9 7 8.552 7 8C7 7.448 7.448 7 8 7H16C16.552 7 17 7.448 17 8C17 8.552 16.552 9 16 9Z" fill="#6D5555"/>
<path d="M24 19.001C24 21.761 21.76 24.001 19 24.001C16.24 24.001 14 21.761 14 19.001C14 16.731 15.52 14.801 17.6 14.201L18.28 15.571C18.58 16.161 19.42 16.161 19.72 15.571L20.4 14.201C22.48 14.801 24 16.731 24 19.001ZM18.596 19.925C19.107 20.141 19.697 19.902 19.913 19.391C20.129 18.88 19.89 18.29 19.379 18.074L17.059 17.093C16.735 16.956 16.349 17.061 16.143 17.362C15.908 17.706 15.997 18.175 16.341 18.409L18.421 19.828C18.474 19.865 18.535 19.899 18.596 19.925Z" fill="#6D5555"/>
<path d="M8 17C7.448 17 7 17.448 7 18C7 18.552 7.448 19 8 19H12C12 18.305 12.105 17.634 12.295 17H8Z" fill="#6D5555"/>
<path d="M16.762 12.374C16.578 12.151 16.311 12 16 12H8C7.448 12 7 12.448 7 13C7 13.552 7.448 14 8 14H14.11C14.853 13.274 15.757 12.714 16.762 12.374Z" fill="#6D5555"/>
</g>
<defs>
<clipPath id="clip0">
<rect width="24" height="24" fill="white"/>
</clipPath>
</defs>
</svg>
