<svg width="24" height="24" viewBox="0 0 24 24" fill="none" xmlns="http://www.w3.org/2000/svg">
<path opacity="0.35" d="M17 3H7C5.895 3 5 3.895 5 5C5 12.603 7.639 16.737 8.904 18.283C9.28 18.743 9.845 19 10.44 19H13.561C14.155 19 14.72 18.743 15.097 18.283C16.361 16.737 19 12.603 19 5C19 3.895 18.105 3 17 3Z" fill="#6D5555"/>
<path d="M22.466 6.299C21.899 5.485 20.971 5 19.983 5H19C19 5.698 18.973 6.36 18.932 7H19.984C20.318 7 20.633 7.165 20.827 7.442C20.931 7.592 21.086 7.901 20.945 8.284C20.485 9.533 19.664 10.388 18.94 11.141C18.646 11.447 18.36 11.747 18.11 12.059C17.888 12.871 17.641 13.606 17.378 14.265C17.496 14.686 17.866 15 18.324 15C18.876 15 19.324 14.553 19.324 14C19.324 13.628 19.814 13.118 20.381 12.527C21.199 11.676 22.216 10.617 22.821 8.975C23.153 8.073 23.024 7.098 22.466 6.299Z" fill="#6D5555"/>
<path d="M1.53502 6.299C2.10202 5.485 3.03102 5 4.01802 5H5.00102C5.00102 5.698 5.02802 6.36 5.06902 7H4.01802C3.68402 7 3.36902 7.165 3.17602 7.442C3.07202 7.592 2.91702 7.901 3.05802 8.284C3.51802 9.533 4.33902 10.388 5.06302 11.141C5.35702 11.447 5.64302 11.747 5.89302 12.059C6.11502 12.871 6.36202 13.606 6.62502 14.265C6.50602 14.686 6.13602 15 5.67802 15C5.12602 15 4.67802 14.553 4.67802 14C4.67802 13.628 4.18802 13.118 3.62102 12.527C2.80302 11.676 1.78602 10.617 1.18102 8.975C0.849017 8.073 0.978017 7.098 1.53502 6.299Z" fill="#6D5555"/>
<path d="M15.948 20.684L15.615 19.684C15.478 19.275 15.096 19 14.666 19H9.33402C8.90402 19 8.52102 19.275 8.38502 19.684L8.05202 20.684C7.83602 21.331 8.31802 22 9.00102 22H14.999C15.682 22 16.164 21.331 15.948 20.684Z" fill="#6D5555"/>
</svg>
