<svg width="20" height="20" viewBox="0 0 20 20" fill="none" xmlns="http://www.w3.org/2000/svg">
<path opacity="0.35" d="M10 1.6665C5.39752 1.6665 1.66668 5.39734 1.66668 9.99984C1.66668 11.3265 1.98502 12.5757 2.53585 13.689L1.69835 17.0382C1.50752 17.8007 2.19835 18.4923 2.96168 18.3015L6.31085 17.464C7.42418 18.0148 8.67335 18.3332 10 18.3332C14.6025 18.3332 18.3333 14.6023 18.3333 9.99984C18.3333 5.39734 14.6025 1.6665 10 1.6665Z" fill="#9B1A48"/>
<path d="M10 11.25C10.6904 11.25 11.25 10.6904 11.25 10C11.25 9.30964 10.6904 8.75 10 8.75C9.30964 8.75 8.75 9.30964 8.75 10C8.75 10.6904 9.30964 11.25 10 11.25Z" fill="#9B1A48"/>
<path d="M14.1667 11.25C14.857 11.25 15.4167 10.6904 15.4167 10C15.4167 9.30964 14.857 8.75 14.1667 8.75C13.4763 8.75 12.9167 9.30964 12.9167 10C12.9167 10.6904 13.4763 11.25 14.1667 11.25Z" fill="#9B1A48"/>
<path d="M5.83334 11.25C6.5237 11.25 7.08334 10.6904 7.08334 10C7.08334 9.30964 6.5237 8.75 5.83334 8.75C5.14299 8.75 4.58334 9.30964 4.58334 10C4.58334 10.6904 5.14299 11.25 5.83334 11.25Z" fill="#9B1A48"/>
</svg>
