<svg width="20" height="20" viewBox="0 0 20 20" fill="none" xmlns="http://www.w3.org/2000/svg">
<path opacity="0.35" d="M14.1666 18.3332H5.83331C4.45248 18.3332 3.33331 17.214 3.33331 15.8332V4.1665C3.33331 2.78567 4.45248 1.6665 5.83331 1.6665H14.1666C15.5475 1.6665 16.6666 2.78567 16.6666 4.1665V15.8332C16.6666 17.214 15.5475 18.3332 14.1666 18.3332Z" fill="#9B1A48"/>
<path d="M9.16669 8.3335H3.33335C2.41252 8.3335 1.66669 9.07933 1.66669 10.0002C1.66669 10.921 2.41252 11.6668 3.33335 11.6668H9.16669V8.3335Z" fill="#9B1A48"/>
<path d="M8.33331 12.7542C8.33331 13.2683 8.95331 13.5267 9.31831 13.165L11.9133 10.5942C12.2433 10.2667 12.2433 9.73334 11.9133 9.40584L9.31831 6.835C8.95331 6.47334 8.33331 6.7325 8.33331 7.24584V12.7542Z" fill="#9B1A48"/>
</svg>
