<svg width="20" height="20" viewBox="0 0 20 20" fill="none" xmlns="http://www.w3.org/2000/svg">
<path opacity="0.35" d="M13.3333 1.66675H4.16663C2.78579 1.66675 1.66663 2.78591 1.66663 4.16675V11.6667C1.66663 13.0184 2.74163 14.1134 4.08329 14.1584L4.71329 16.0917C4.90829 16.6901 5.66996 16.8642 6.10663 16.4109L8.26329 14.1667H13.3333C14.7141 14.1667 15.8333 13.0476 15.8333 11.6667V4.16675C15.8333 2.78591 14.7141 1.66675 13.3333 1.66675Z" fill="#BF255C"/>
<path d="M15.8333 3.33325H15.68C15.7733 3.59492 15.8333 3.87242 15.8333 4.16659V11.6666C15.8333 13.0474 14.7141 14.1666 13.3333 14.1666H8.26329L6.66162 15.8324C6.66329 15.8324 6.66495 15.8333 6.66662 15.8333H11.7366L13.8941 18.0774C14.33 18.5308 15.0925 18.3566 15.2875 17.7583L15.9175 15.8249C17.2583 15.7799 18.3333 14.6849 18.3333 13.3333V5.83325C18.3333 4.45242 17.2141 3.33325 15.8333 3.33325Z" fill="#BF255C"/>
</svg>
