<svg width="24" height="24" viewBox="0 0 24 24" fill="none" xmlns="http://www.w3.org/2000/svg">
<path opacity="0.35" d="M18 21H6C4.343 21 3 19.657 3 18V6C3 4.343 4.343 3 6 3H18C19.657 3 21 4.343 21 6V18C21 19.657 19.657 21 18 21Z" fill="#BF255C"/>
<path d="M17 8H7C6.447 8 6 7.552 6 7C6 6.448 6.447 6 7 6H17C17.553 6 18 6.448 18 7C18 7.552 17.553 8 17 8Z" fill="#BF255C"/>
<path d="M17 13H7C6.447 13 6 12.552 6 12C6 11.448 6.447 11 7 11H17C17.553 11 18 11.448 18 12C18 12.552 17.553 13 17 13Z" fill="#BF255C"/>
<path d="M17 18H7C6.447 18 6 17.552 6 17C6 16.448 6.447 16 7 16H17C17.553 16 18 16.448 18 17C18 17.552 17.553 18 17 18Z" fill="#BF255C"/>
</svg>
