<svg width="24" height="24" viewBox="0 0 24 24" fill="none" xmlns="http://www.w3.org/2000/svg">
<path opacity="0.35" d="M18 21H6C4.343 21 3 19.657 3 18V7H21V18C21 19.657 19.657 21 18 21Z" fill="#BF255C"/>
<path d="M12 21H7V14C7 13.448 7.448 13 8 13H11C11.552 13 12 13.448 12 14V21Z" fill="#BF255C"/>
<path d="M17 17H15C14.448 17 14 16.552 14 16V14C14 13.448 14.448 13 15 13H17C17.552 13 18 13.448 18 14V16C18 16.552 17.552 17 17 17Z" fill="#BF255C"/>
<path d="M21.895 8.553L21 6.764V6C21 4.343 19.657 3 18 3H5.99999C4.34299 3 2.99999 4.343 2.99999 6V6.764L2.10499 8.553C1.90299 8.957 1.99699 9.445 2.33399 9.746C2.47799 9.874 3.78699 11 5.49999 11C6.60799 11 7.54799 10.528 8.11199 10.161C8.88699 10.495 10.332 11 12 11C13.668 11 15.113 10.495 15.888 10.161C16.452 10.528 17.392 11 18.5 11C20.213 11 21.522 9.874 21.666 9.746C22.003 9.445 22.097 8.957 21.895 8.553Z" fill="#BF255C"/>
</svg>
