<svg width="40" height="40" viewBox="0 0 40 40" fill="none" xmlns="http://www.w3.org/2000/svg">
<path d="M20 1.66669C17.6983 1.66669 15.8333 3.53169 15.8333 5.83335C15.8333 8.13502 17.6983 10 20 10C22.3017 10 24.1667 8.13502 24.1667 5.83335C24.1667 3.53169 22.3017 1.66669 20 1.66669Z" fill="#9B1A48"/>
<path opacity="0.35" d="M31.7418 36.6667C31.5735 36.6667 31.4051 36.6417 31.2368 36.5884C31.1885 36.5717 26.1451 35 20.0001 35C13.8551 35 8.81181 36.5717 8.76348 36.5884C7.88848 36.8667 6.95015 36.3817 6.67015 35.5034C6.39181 34.6284 6.87681 33.6917 7.75348 33.4117C7.97681 33.34 13.3151 31.6667 20.0001 31.6667C26.6851 31.6667 32.0235 33.34 32.2468 33.4117C33.1235 33.6917 33.6085 34.6267 33.3301 35.5034C33.1035 36.2134 32.4485 36.6667 31.7418 36.6667Z" fill="#9B1A48"/>
<path d="M30 29.9999C29.61 29.9999 29.2183 29.8649 28.9033 29.5882L21.6667 23.2565V12.2049L31.0483 8.45152C31.8967 8.10986 32.8733 8.52486 33.215 9.38152C33.5567 10.2365 33.14 11.2065 32.285 11.5482L25 14.4615V21.7432L31.0967 27.0782C31.79 27.6849 31.86 28.7382 31.255 29.4299C30.925 29.8082 30.4633 29.9999 30 29.9999Z" fill="#9B1A48"/>
<path d="M10.0001 29.9999C9.53678 29.9999 9.07511 29.8082 8.74511 29.4299C8.14011 28.7382 8.21011 27.6849 8.90344 27.0782L15.0001 21.7432V14.4615L7.71511 11.5482C6.86011 11.2065 6.44344 10.2365 6.78511 9.38152C7.12678 8.52486 8.10344 8.10986 8.95178 8.45152L18.3334 12.2049V23.2565L11.0968 29.5882C10.7818 29.8649 10.3901 29.9999 10.0001 29.9999Z" fill="#9B1A48"/>
<path d="M24.9999 19.8317V16.0484C24.9999 15.4084 25.3665 14.8234 25.9449 14.5467L31.9315 11.6667H19.9999H8.06821L14.0549 14.545C14.6332 14.8234 14.9999 15.4067 14.9999 16.0484V19.8317C14.9999 20.2517 14.8415 20.655 14.5565 20.9634L8.82321 27.165L11.0565 29.6167L18.4765 24.4017C19.3899 23.76 20.6065 23.76 21.5199 24.4017L28.9399 29.6167L31.1732 27.165L25.4399 20.9634C25.1582 20.655 24.9999 20.2517 24.9999 19.8317Z" fill="#9B1A48"/>
</svg>
