<svg width="40" height="40" viewBox="0 0 40 40" fill="none" xmlns="http://www.w3.org/2000/svg">
<path opacity="0.35" d="M35.7116 20.025L32.8283 16.515C32.025 9.17498 26.6666 3.33331 18.3333 3.33331C8.93829 3.33331 3.37163 9.87998 3.37163 18.3333C3.37163 24.3966 6.51663 27.1616 7.79829 31.3866C8.44496 33.5166 10.37 35 12.595 35H26.975C29.3566 35 31.4083 33.3183 31.8766 30.9833L32.75 26.6266L34.6233 25.6083C36.6583 24.5 37.1816 21.815 35.7116 20.025Z" fill="#9B1A48"/>
<path d="M19.5735 13.3333C19.5735 12.5716 19.9152 11.895 20.4535 11.44C20.9318 11.035 21.1418 10.39 20.9202 9.80165C20.5335 8.77498 19.9835 7.82998 19.3002 6.99665C18.9168 6.52998 18.2718 6.34998 17.7085 6.56665C17.0318 6.82998 16.2502 6.79665 15.5735 6.40498C14.8935 6.01331 14.4735 5.34998 14.3618 4.62998C14.2718 4.04165 13.8068 3.57165 13.2202 3.47165C12.6835 3.38165 12.1335 3.33331 11.5735 3.33331C11.0135 3.33331 10.4618 3.38165 9.92515 3.47165C9.33848 3.57165 8.87348 4.04165 8.78348 4.62998C8.67182 5.34998 8.25182 6.01331 7.57348 6.40498C6.89515 6.79665 6.11348 6.82998 5.43848 6.56831C4.87515 6.35165 4.23015 6.52998 3.84682 6.99831C3.16348 7.83165 2.61348 8.77665 2.22682 9.80331C2.00515 10.39 2.21515 11.035 2.69348 11.4416C3.23015 11.895 3.57348 12.5716 3.57348 13.3333C3.57348 14.0933 3.23182 14.7716 2.69348 15.2266C2.21515 15.6316 2.00515 16.2766 2.22682 16.8633C2.61348 17.89 3.16348 18.835 3.84682 19.6683C4.23015 20.135 4.87515 20.315 5.43848 20.0983C6.11515 19.8366 6.89682 19.87 7.57348 20.2616C8.25349 20.655 8.67348 21.3166 8.78348 22.0366C8.87348 22.625 9.34015 23.095 9.92682 23.195C10.4618 23.285 11.0118 23.3333 11.5735 23.3333C12.1352 23.3333 12.6852 23.285 13.2202 23.195C13.8068 23.095 14.2718 22.625 14.3635 22.0366C14.4735 21.3166 14.8935 20.655 15.5735 20.2616C16.2502 19.87 17.0318 19.8366 17.7085 20.0983C18.2718 20.315 18.9168 20.135 19.3002 19.6683C19.9835 18.835 20.5335 17.89 20.9202 16.8633C21.1418 16.2766 20.9318 15.6316 20.4535 15.2266C19.9152 14.7716 19.5735 14.0933 19.5735 13.3333ZM11.5735 17.3333C9.36515 17.3333 7.57348 15.5416 7.57348 13.3333C7.57348 11.125 9.36515 9.33331 11.5735 9.33331C13.7818 9.33331 15.5735 11.125 15.5735 13.3333C15.5735 15.5416 13.7818 17.3333 11.5735 17.3333Z" fill="#9B1A48"/>
</svg>
