<svg width="40" height="40" viewBox="0 0 40 40" fill="none" xmlns="http://www.w3.org/2000/svg">
<path d="M31.6667 13.3333H30C27.2383 13.3333 25 15.5716 25 18.3333V21.785L23.4467 26.7533C23.2083 27.5116 23.3467 28.3383 23.8183 28.98C24.29 29.6216 25.0367 30 25.8333 30H34.1667C35.5467 30 36.6667 28.88 36.6667 27.5V18.3333C36.6667 15.5716 34.4283 13.3333 31.6667 13.3333Z" fill="#9B1A48"/>
<path d="M3.33331 18.3333V27.5C3.33331 28.88 4.45331 30 5.83331 30H8.33331C8.33331 29.08 9.07998 28.3333 9.99998 28.3333C10.92 28.3333 11.6666 29.08 11.6666 30H15V18.3333C15 15.5716 12.7616 13.3333 9.99998 13.3333H8.33331C5.57165 13.3333 3.33331 15.5716 3.33331 18.3333Z" fill="#9B1A48"/>
<path d="M15 28.3333H11.6667C11.6667 28.3333 11.6667 34.69 11.6667 35C11.6667 35.92 12.4134 36.6666 13.3334 36.6666C14.2534 36.6666 15 35.92 15 35C15 34.69 15 28.3333 15 28.3333Z" fill="#9B1A48"/>
<path d="M8.33333 28.3333H5C5 28.3333 5 34.69 5 35C5 35.92 5.74667 36.6666 6.66667 36.6666C7.58667 36.6666 8.33333 35.92 8.33333 35C8.33333 34.69 8.33333 28.3333 8.33333 28.3333Z" fill="#9B1A48"/>
<path d="M25 28.3333H28.3333C28.3333 28.3333 28.3333 34.69 28.3333 35C28.3333 35.92 27.5867 36.6666 26.6667 36.6666C25.7467 36.6666 25 35.92 25 35C25 34.69 25 28.3333 25 28.3333Z" fill="#9B1A48"/>
<path d="M31.6667 28.3333H35C35 28.3333 35 34.69 35 35C35 35.92 34.2534 36.6666 33.3334 36.6666C32.4134 36.6666 31.6667 35.92 31.6667 35C31.6667 34.69 31.6667 28.3333 31.6667 28.3333Z" fill="#9B1A48"/>
<path d="M20 26.6666C19.51 26.6666 19.045 26.4516 18.7283 26.0766L11.25 17.255C10.6533 16.5533 10.74 15.5016 11.4433 14.905C12.1467 14.3116 13.1967 14.3983 13.7917 15.1L20 22.4216L26.2083 15.0983C26.8033 14.395 27.8533 14.3083 28.5567 14.905C29.2583 15.5 29.3467 16.5516 28.75 17.2533L21.27 26.0766C20.955 26.4516 20.49 26.6666 20 26.6666Z" fill="#9B1A48"/>
<path opacity="0.35" d="M9.99998 11.6666C12.3012 11.6666 14.1666 9.80117 14.1666 7.49998C14.1666 5.19879 12.3012 3.33331 9.99998 3.33331C7.69879 3.33331 5.83331 5.19879 5.83331 7.49998C5.83331 9.80117 7.69879 11.6666 9.99998 11.6666Z" fill="#9B1A48"/>
<path opacity="0.35" d="M30 11.6666C32.3012 11.6666 34.1666 9.80117 34.1666 7.49998C34.1666 5.19879 32.3012 3.33331 30 3.33331C27.6988 3.33331 25.8333 5.19879 25.8333 7.49998C25.8333 9.80117 27.6988 11.6666 30 11.6666Z" fill="#9B1A48"/>
<path opacity="0.35" d="M37.51 9.15656C36.9367 8.58322 36.1117 8.39656 35.5617 8.33656C35.2384 8.30156 34.9684 8.57156 35.0034 8.89489C35.0634 9.44489 35.25 10.2699 35.8234 10.8432C36.3967 11.4166 37.2217 11.6032 37.7717 11.6632C38.095 11.6982 38.365 11.4282 38.33 11.1049C38.2717 10.5532 38.0834 9.72822 37.51 9.15656Z" fill="#9B1A48"/>
</svg>
