<svg width="40" height="40" viewBox="0 0 40 40" fill="none" xmlns="http://www.w3.org/2000/svg">
<path opacity="0.35" d="M25 10H15C15 10 5 15 5 26.6667C5 34.9517 11.715 36.6667 20 36.6667C28.285 36.6667 35 34.9517 35 26.6667C35 15 25 10 25 10Z" fill="#9B1A48"/>
<path d="M26.6666 11.6667H13.3333C12.4133 11.6667 11.6666 10.9217 11.6666 10C11.6666 9.07837 12.4133 8.33337 13.3333 8.33337H26.6666C27.5866 8.33337 28.3333 9.07837 28.3333 10C28.3333 10.9217 27.5866 11.6667 26.6666 11.6667Z" fill="#9B1A48"/>
<path opacity="0.35" d="M24.62 4.25496L23.1516 3.96163C22.7133 2.63163 21.4766 1.66663 20 1.66663C18.5233 1.66663 17.2866 2.63163 16.8483 3.96163L15.38 4.25496C13.605 4.60996 12.7583 6.65329 13.7633 8.15996L14.99 9.99996H16.6783H23.3233H25.0116L26.2383 8.15996C27.2416 6.65329 26.3949 4.60996 24.62 4.25496Z" fill="#9B1A48"/>
<path d="M21.643 25.9706C24.9242 25.9706 26.6359 24.0743 26.6359 21.5672C26.6359 19.0956 24.9526 17.1212 21.643 17.1212H17.3589C16.8066 17.1212 16.3589 17.5689 16.3589 18.1212V24.1099H15.0663C14.5524 24.1099 14.1359 24.5264 14.1359 25.0402C14.1359 25.5541 14.5524 25.9706 15.0663 25.9706H16.3589V27.1922H15.0698C14.554 27.1922 14.1359 27.6104 14.1359 28.1262C14.1359 28.642 14.554 29.0601 15.0698 29.0601H16.3589V30.6667C16.3589 31.219 16.8066 31.6667 17.3589 31.6667H17.5464C18.0987 31.6667 18.5464 31.219 18.5464 30.6667V29.0601H20.8156C21.3314 29.0601 21.7495 28.642 21.7495 28.1262C21.7495 27.6104 21.3314 27.1922 20.8156 27.1922H18.5464V25.9706H21.643ZM18.5464 24.1099V18.9962H21.643C23.5464 18.9962 24.4555 20.0971 24.4555 21.5743C24.4555 23.0658 23.5535 24.1099 21.6146 24.1099H18.5464Z" fill="#9B1A48"/>
</svg>
