<svg width="20" height="21" viewBox="0 0 20 21" fill="none" xmlns="http://www.w3.org/2000/svg">
<path d="M9.99999 1.30005C9.71659 1.30005 9.41854 1.31555 9.12889 1.34146C9.02348 1.3498 8.92077 1.37895 8.8267 1.42724C8.73262 1.47552 8.64905 1.54197 8.58082 1.62275C8.51258 1.70353 8.46104 1.79703 8.42916 1.89785C8.39729 1.99867 8.38571 2.10482 8.39511 2.21014C8.4045 2.31546 8.43469 2.41788 8.48391 2.51146C8.53313 2.60505 8.60041 2.68795 8.68187 2.75537C8.76332 2.8228 8.85734 2.87341 8.95847 2.90427C9.05961 2.93514 9.16586 2.94565 9.27108 2.9352C9.51823 2.91311 9.77538 2.90005 9.99999 2.90005C12.5641 2.90005 14.806 4.1669 16.182 6.10005H14.8C14.694 6.09855 14.5887 6.11813 14.4904 6.15766C14.392 6.1972 14.3024 6.25588 14.2269 6.33032C14.1515 6.40476 14.0915 6.49345 14.0506 6.59126C14.0097 6.68906 13.9886 6.79403 13.9886 6.90005C13.9886 7.00607 14.0097 7.11103 14.0506 7.20884C14.0915 7.30664 14.1515 7.39534 14.2269 7.46978C14.3024 7.54421 14.392 7.6029 14.4904 7.64243C14.5887 7.68196 14.694 7.70155 14.8 7.70005H18C18.2122 7.70003 18.4156 7.61573 18.5656 7.46571C18.7157 7.31569 18.8 7.11221 18.8 6.90005V3.70005C18.8015 3.59308 18.7814 3.48691 18.7412 3.38781C18.7009 3.28871 18.6411 3.1987 18.5655 3.12309C18.4898 3.04748 18.3997 2.98782 18.3006 2.94763C18.2014 2.90744 18.0952 2.88754 17.9883 2.88911C17.7762 2.89222 17.5741 2.97938 17.4263 3.13143C17.2785 3.28349 17.1971 3.48801 17.2 3.70005V4.79614C15.5169 2.67246 12.923 1.30005 9.99999 1.30005ZM2.79999 2.10005C2.69398 2.09855 2.58873 2.11813 2.49035 2.15767C2.39198 2.1972 2.30244 2.25589 2.22695 2.33032C2.15145 2.40476 2.0915 2.49345 2.05058 2.59126C2.00967 2.68907 1.98859 2.79403 1.98859 2.90005C1.98859 3.00607 2.00967 3.11103 2.05058 3.20884C2.0915 3.30664 2.15145 3.39534 2.22695 3.46978C2.30244 3.54421 2.39198 3.6029 2.49035 3.64243C2.58873 3.68196 2.69398 3.70155 2.79999 3.70005H3.79921C1.95082 5.38946 0.799988 7.82458 0.799988 10.5C0.799988 10.782 0.810353 11.0759 0.832019 11.361C0.838434 11.4669 0.865861 11.5705 0.912703 11.6658C0.959545 11.761 1.02487 11.8459 1.10486 11.9157C1.18486 11.9854 1.27793 12.0386 1.37866 12.072C1.47939 12.1054 1.58576 12.1185 1.69158 12.1104C1.7974 12.1023 1.90056 12.0732 1.99504 12.0249C2.08952 11.9766 2.17344 11.9099 2.24192 11.8288C2.31039 11.7477 2.36205 11.6538 2.39388 11.5526C2.42571 11.4514 2.43708 11.3448 2.42733 11.2391C2.409 10.9978 2.39999 10.7413 2.39999 10.5C2.39999 8.13082 3.48823 5.99865 5.19999 4.60239V6.10005C5.19849 6.20606 5.21807 6.31131 5.2576 6.40968C5.29714 6.50806 5.35582 6.59759 5.43026 6.67309C5.5047 6.74859 5.59339 6.80853 5.6912 6.84945C5.789 6.89037 5.89397 6.91144 5.99999 6.91144C6.10601 6.91144 6.21097 6.89037 6.30878 6.84945C6.40658 6.80853 6.49528 6.74859 6.56972 6.67309C6.64415 6.59759 6.70284 6.50806 6.74237 6.40968C6.7819 6.31131 6.80149 6.20606 6.79999 6.10005V2.90005C6.79997 2.68788 6.71567 2.48441 6.56565 2.33439C6.41563 2.18436 6.21215 2.10007 5.99999 2.10005H2.79999ZM18.4187 9.28911C18.3071 9.28498 18.1958 9.30428 18.092 9.34578C17.9883 9.38728 17.8944 9.45006 17.8163 9.53006C17.7383 9.61006 17.6779 9.70552 17.6391 9.81029C17.6002 9.91505 17.5837 10.0268 17.5906 10.1383C17.5965 10.2604 17.6 10.3808 17.6 10.5C17.6 13.0641 16.333 15.3061 14.4 16.6821V15.3C14.4015 15.1931 14.3814 15.0869 14.3412 14.9878C14.3009 14.8887 14.2411 14.7987 14.1655 14.7231C14.0898 14.6475 13.9997 14.5878 13.9006 14.5476C13.8014 14.5074 13.6952 14.4875 13.5883 14.4891C13.3762 14.4922 13.1741 14.5794 13.0263 14.7314C12.8785 14.8835 12.7971 15.088 12.8 15.3V18.5C12.8 18.7122 12.8843 18.9157 13.0343 19.0657C13.1844 19.2157 13.3878 19.3 13.6 19.3H16.8C16.906 19.3015 17.0112 19.282 17.1096 19.2424C17.208 19.2029 17.2975 19.1442 17.373 19.0698C17.4485 18.9953 17.5085 18.9066 17.5494 18.8088C17.5903 18.711 17.6114 18.6061 17.6114 18.5C17.6114 18.394 17.5903 18.2891 17.5494 18.1913C17.5085 18.0935 17.4485 18.0048 17.373 17.9303C17.2975 17.8559 17.208 17.7972 17.1096 17.7577C17.0112 17.7181 16.906 17.6985 16.8 17.7H15.7039C17.8274 16.017 19.2 13.4232 19.2 10.5C19.2 10.3521 19.196 10.2061 19.1891 10.0618C19.1822 9.85941 19.099 9.66716 18.956 9.52377C18.8131 9.38039 18.6211 9.29653 18.4187 9.28911ZM1.99999 13.7C1.78782 13.7001 1.58435 13.7844 1.43433 13.9344C1.2843 14.0844 1.20001 14.2879 1.19999 14.5V17.7C1.19849 17.8061 1.21807 17.9113 1.2576 18.0097C1.29714 18.1081 1.35582 18.1976 1.43026 18.2731C1.5047 18.3486 1.59339 18.4085 1.6912 18.4495C1.789 18.4904 1.89397 18.5114 1.99999 18.5114C2.10601 18.5114 2.21097 18.4904 2.30878 18.4495C2.40658 18.4085 2.49528 18.3486 2.56972 18.2731C2.64415 18.1976 2.70284 18.1081 2.74237 18.0097C2.7819 17.9113 2.80149 17.8061 2.79999 17.7V16.211C4.49001 18.3369 7.09574 19.7 9.99999 19.7C10.1395 19.7 10.2848 19.6974 10.4289 19.6922C10.6409 19.6844 10.8411 19.5928 10.9855 19.4374C11.1299 19.2821 11.2067 19.0757 11.199 18.8637C11.1914 18.6518 11.0999 18.4515 10.9446 18.307C10.7893 18.1625 10.5831 18.0855 10.3711 18.093C10.2464 18.0975 10.1197 18.1 9.99999 18.1C7.63384 18.1 5.51464 17.0079 4.11874 15.3H5.19999C5.306 15.3015 5.41125 15.282 5.50962 15.2424C5.608 15.2029 5.69753 15.1442 5.77303 15.0698C5.84853 14.9953 5.90847 14.9066 5.94939 14.8088C5.99031 14.711 6.01138 14.6061 6.01138 14.5C6.01138 14.394 5.99031 14.2891 5.94939 14.1913C5.90847 14.0935 5.84853 14.0048 5.77303 13.9303C5.69753 13.8559 5.608 13.7972 5.50962 13.7577C5.41125 13.7181 5.306 13.6985 5.19999 13.7H1.99999Z" fill="#CFA146"/>
</svg>
