<svg width="24" height="24" viewBox="0 0 24 24" fill="none" xmlns="http://www.w3.org/2000/svg">
<path d="M5.08094 12.9999H5.65794C6.06094 12.9999 6.26294 12.5139 5.97994 12.2279L3.96594 10.1939C3.70994 9.93493 3.29094 9.93493 3.03494 10.1939L1.01994 12.2279C0.736939 12.5139 0.938939 12.9999 1.34194 12.9999H2.05394C2.27294 15.1609 3.18894 17.2099 4.67594 18.8109C5.40394 19.5939 6.71194 19.3229 7.13094 18.3389C7.35994 17.7999 7.25494 17.1769 6.85794 16.7469C5.89594 15.7039 5.28294 14.3919 5.08094 12.9999Z" fill="#6D5555"/>
<path d="M22.6579 10.9999H21.9459C21.7269 8.83893 20.8109 6.78993 19.3239 5.18893C18.5959 4.40593 17.2879 4.67693 16.8689 5.66093C16.6399 6.19993 16.7449 6.82293 17.1419 7.25293C18.1029 8.29493 18.7159 9.60693 18.9179 10.9989H18.3409C17.9379 10.9989 17.7359 11.4849 18.0189 11.7709L20.0329 13.8049C20.2889 14.0639 20.7079 14.0639 20.9639 13.8049L22.9789 11.7709C23.2629 11.4859 23.0609 10.9999 22.6579 10.9999Z" fill="#6D5555"/>
<g opacity="0.35">
<path d="M18.3381 16.8699C17.7991 16.6409 17.1761 16.7459 16.7461 17.1429C15.7041 18.1039 14.3921 18.7169 13.0001 18.9189V18.3419C13.0001 17.9389 12.5141 17.7369 12.2281 18.0199L10.1941 20.0339C9.93507 20.2899 9.93507 20.7089 10.1941 20.9649L12.2281 22.9799C12.5141 23.2629 13.0001 23.0609 13.0001 22.6579V21.9459C15.1611 21.7269 17.2101 20.8109 18.8111 19.3239C19.5941 18.5969 19.3221 17.2879 18.3381 16.8699Z" fill="#6D5555"/>
<path d="M11.0001 5.65794C11.0001 6.06094 11.4861 6.26294 11.7721 5.97994L13.8061 3.96594C14.0651 3.70994 14.0651 3.29094 13.8061 3.03494L11.7721 1.01994C11.4861 0.736939 11.0001 0.938939 11.0001 1.34194V2.05394C8.83907 2.27294 6.79007 3.18894 5.18907 4.67494C4.40607 5.40294 4.67807 6.71194 5.66207 7.12994C6.20107 7.35894 6.82407 7.25394 7.25407 6.85694C8.29607 5.89594 9.60807 5.28294 11.0001 5.08094V5.65794Z" fill="#6D5555"/>
</g>
</svg>
