<svg width="22" height="22" viewBox="0 0 22 22" fill="none" xmlns="http://www.w3.org/2000/svg">
<path d="M15.4461 0H6.55392C2.94007 0 0 2.94007 0 6.55392V15.4461C0 19.0599 2.94007 22 6.55392 22H15.4461C19.0599 22 22 19.0599 22 15.4461V6.55392C22 2.94007 19.0599 0 15.4461 0ZM19.7868 15.4461C19.7868 17.8434 17.8434 19.7868 15.4461 19.7868H6.55392C4.15663 19.7868 2.2132 17.8434 2.2132 15.4461V6.55392C2.2132 4.15659 4.15663 2.2132 6.55392 2.2132H15.4461C17.8434 2.2132 19.7868 4.15659 19.7868 6.55392V15.4461Z" fill="white"/>
<path d="M11 5.31002C7.86255 5.31002 5.31003 7.86254 5.31003 11C5.31003 14.1374 7.86255 16.6899 11 16.6899C14.1375 16.6899 16.69 14.1374 16.69 11C16.69 7.8625 14.1375 5.31002 11 5.31002ZM11 14.4768C9.07982 14.4768 7.52322 12.9202 7.52322 11C7.52322 9.07981 9.07986 7.52322 11 7.52322C12.9202 7.52322 14.4768 9.07981 14.4768 11C14.4768 12.9201 12.9202 14.4768 11 14.4768Z" fill="white"/>
<path d="M16.701 6.71618C17.454 6.71618 18.0644 6.10575 18.0644 5.35274C18.0644 4.59973 17.454 3.9893 16.701 3.9893C15.948 3.9893 15.3375 4.59973 15.3375 5.35274C15.3375 6.10575 15.948 6.71618 16.701 6.71618Z" fill="white"/>
</svg>
