<svg width="14" height="14" viewBox="0 0 14 14" fill="none" xmlns="http://www.w3.org/2000/svg">
<path d="M8.75 10.5001C8.75 10.2942 8.792 10.0999 8.85733 9.91675H4.08333C3.43992 9.91675 2.91667 9.3935 2.91667 8.75008C2.91667 8.20758 3.29992 7.72925 3.82842 7.612L3.83075 7.61142C3.91125 7.59275 3.99642 7.58342 4.08333 7.58342H4.1825H7.161H9.91667C11.2035 7.58342 12.25 6.53692 12.25 5.25008C12.25 3.96325 11.2035 2.91675 9.91667 2.91675H5.14267C5.208 3.09991 5.25 3.29416 5.25 3.50008C5.25 3.706 5.208 3.90025 5.14267 4.08341H9.91667C10.5601 4.08341 11.0833 4.60667 11.0833 5.25008C11.0833 5.8935 10.5601 6.41675 9.91667 6.41675H7.161H4.1825H4.08333C3.91008 6.41675 3.73917 6.43542 3.57408 6.47275V6.47217C3.5735 6.47217 3.57292 6.47275 3.57233 6.47275H3.57175C2.5165 6.71017 1.75 7.66683 1.75 8.75008C1.75 10.0369 2.7965 11.0834 4.08333 11.0834H8.85733C8.792 10.9002 8.75 10.706 8.75 10.5001Z" fill="black"/>
<path opacity="0.35" d="M3.5 5.25C4.4665 5.25 5.25 4.4665 5.25 3.5C5.25 2.5335 4.4665 1.75 3.5 1.75C2.5335 1.75 1.75 2.5335 1.75 3.5C1.75 4.4665 2.5335 5.25 3.5 5.25Z" fill="black"/>
<path opacity="0.35" d="M10.5 12.25C11.4665 12.25 12.25 11.4665 12.25 10.5C12.25 9.5335 11.4665 8.75 10.5 8.75C9.5335 8.75 8.75 9.5335 8.75 10.5C8.75 11.4665 9.5335 12.25 10.5 12.25Z" fill="black"/>
</svg>
