<svg width="24" height="24" viewBox="0 0 24 24" fill="none" xmlns="http://www.w3.org/2000/svg">
<path d="M12 1C10.619 1 9.5 2.119 9.5 3.5C9.5 4.881 10.619 6 12 6C13.381 6 14.5 4.881 14.5 3.5C14.5 2.119 13.381 1 12 1Z" fill="#6D5555"/>
<path opacity="0.35" d="M19.045 22C18.944 22 18.843 21.985 18.742 21.953C18.713 21.943 15.687 21 12 21C8.31295 21 5.28695 21.943 5.25795 21.953C4.73295 22.12 4.16995 21.829 4.00195 21.302C3.83495 20.777 4.12595 20.215 4.65195 20.047C4.78595 20.004 7.98895 19 12 19C16.011 19 19.214 20.004 19.348 20.047C19.874 20.215 20.165 20.776 19.998 21.302C19.862 21.728 19.469 22 19.045 22Z" fill="#6D5555"/>
<path d="M18 18C17.766 18 17.531 17.919 17.342 17.753L13 13.954V7.32304L18.629 5.07104C19.138 4.86604 19.724 5.11504 19.929 5.62904C20.134 6.14204 19.884 6.72404 19.371 6.92904L15 8.67704V13.046L18.658 16.247C19.074 16.611 19.116 17.243 18.753 17.658C18.555 17.885 18.278 18 18 18Z" fill="#6D5555"/>
<path d="M6.00003 18C5.72203 18 5.44503 17.885 5.24703 17.658C4.88403 17.243 4.92603 16.611 5.34203 16.247L9.00003 13.046V8.67704L4.62903 6.92904C4.11603 6.72404 3.86603 6.14204 4.07103 5.62904C4.27603 5.11504 4.86203 4.86604 5.37103 5.07104L11 7.32304V13.954L6.65803 17.753C6.46903 17.919 6.23403 18 6.00003 18Z" fill="#6D5555"/>
<path d="M14.9999 11.899V9.629C14.9999 9.245 15.2199 8.894 15.5669 8.728L19.1589 7H11.9999H4.84094L8.43294 8.727C8.77994 8.894 8.99994 9.244 8.99994 9.629V11.899C8.99994 12.151 8.90494 12.393 8.73394 12.578L5.29394 16.299L6.63394 17.77L11.0859 14.641C11.6339 14.256 12.3639 14.256 12.9119 14.641L17.3639 17.77L18.7039 16.299L15.2639 12.578C15.0949 12.393 14.9999 12.151 14.9999 11.899Z" fill="#6D5555"/>
</svg>
