<svg width="24" height="24" viewBox="0 0 24 24" fill="none" xmlns="http://www.w3.org/2000/svg">
<path d="M12 22C11.6726 22 11.3569 21.8841 11.1109 21.6734C10.1817 20.8794 9.28591 20.1331 8.49557 19.4749L8.49153 19.4714C6.17437 17.5415 4.17342 15.8747 2.78119 14.2329C1.22489 12.3974 0.5 10.6571 0.5 8.75591C0.5 6.90876 1.14803 5.20464 2.3246 3.95726C3.51521 2.69513 5.14889 2 6.92523 2C8.25288 2 9.46876 2.41025 10.539 3.21926C11.0791 3.62762 11.5687 4.1274 12 4.71036C12.4315 4.1274 12.9209 3.62762 13.4612 3.21926C14.5314 2.41025 15.7473 2 17.0749 2C18.8511 2 20.485 2.69513 21.6756 3.95726C22.8521 5.20464 23.5 6.90876 23.5 8.75591C23.5 10.6571 22.7753 12.3974 21.219 14.2327C19.8268 15.8747 17.826 17.5413 15.5092 19.4711C14.7174 20.1304 13.8202 20.8778 12.889 21.6738C12.6431 21.8841 12.3273 22 12 22ZM6.92523 3.31685C5.52967 3.31685 4.24764 3.86121 3.31499 4.84979C2.36847 5.85329 1.84713 7.24046 1.84713 8.75591C1.84713 10.3549 2.45515 11.7849 3.81843 13.3927C5.13582 14.9464 7.09521 16.5785 9.3639 18.4682L9.36523 18.4693L9.36944 18.4727C10.1628 19.1336 11.0621 19.8827 11.9981 20.6826C12.9397 19.8812 13.8404 19.1308 14.6353 18.469C14.6373 18.4673 14.6394 18.4656 14.6414 18.4639C16.9079 16.5758 18.8653 14.9453 20.1817 13.3927C21.5448 11.7849 22.1529 10.3549 22.1529 8.75591C22.1529 7.24046 21.6315 5.85329 20.685 4.84979C19.7525 3.86121 18.4703 3.31685 17.0749 3.31685C16.0526 3.31685 15.114 3.63448 14.2852 4.26083C13.5466 4.81926 13.0322 5.52519 12.7305 6.01914C12.5754 6.27315 12.3023 6.42476 12 6.42476C11.6977 6.42476 11.4246 6.27315 11.2695 6.01914C10.968 5.52519 10.4535 4.81926 9.71478 4.26083C8.886 3.63448 7.94738 3.31685 6.92523 3.31685Z" fill="#D9D9D9"/>
<path d="M6.92523 3.31685C5.52967 3.31685 4.24764 3.86121 3.31499 4.84979C2.36847 5.85329 1.84713 7.24046 1.84713 8.75591C1.84713 10.3549 2.45515 11.7849 3.81843 13.3927C5.13582 14.9464 7.09521 16.5785 9.3639 18.4682L9.36523 18.4693L9.36944 18.4727C10.1628 19.1336 11.0621 19.8827 11.9981 20.6826C12.9397 19.8812 13.8404 19.1308 14.6353 18.469L14.6414 18.4639C16.9079 16.5758 18.8653 14.9453 20.1817 13.3927C21.5448 11.7849 22.1529 10.3549 22.1529 8.75591C22.1529 7.24046 21.6315 5.85329 20.685 4.84979C19.7525 3.86121 18.4703 3.31685 17.0749 3.31685C16.0526 3.31685 15.114 3.63448 14.2852 4.26083C13.5466 4.81926 13.0322 5.52519 12.7305 6.01914C12.5754 6.27315 12.3023 6.42476 12 6.42476C11.6977 6.42476 11.4246 6.27315 11.2695 6.01914C10.968 5.52519 10.4535 4.81926 9.71478 4.26083C8.886 3.63448 7.94738 3.31685 6.92523 3.31685Z" fill="#D9D9D9"/>
</svg>
