<svg width="12" height="12" viewBox="0 0 12 12" fill="none" xmlns="http://www.w3.org/2000/svg">
<path d="M1.8 6.71411C1.8 6.27228 1.44183 5.91411 1 5.91411C0.558172 5.91411 0.2 6.27228 0.2 6.71411L1.8 6.71411ZM0.2 10.9998C0.2 11.4417 0.558172 11.7998 1 11.7998C1.44183 11.7998 1.8 11.4417 1.8 10.9998L0.2 10.9998ZM0.2 6.71411L0.2 10.9998L1.8 10.9998L1.8 6.71411L0.2 6.71411Z" fill="#9B1A48"/>
<path d="M6.8 4C6.8 3.55817 6.44183 3.2 6 3.2C5.55817 3.2 5.2 3.55817 5.2 4L6.8 4ZM5.2 11C5.2 11.4418 5.55817 11.8 6 11.8C6.44183 11.8 6.8 11.4418 6.8 11L5.2 11ZM5.2 4L5.2 11L6.8 11L6.8 4L5.2 4Z" fill="#9B1A48"/>
<path d="M11.8 1C11.8 0.558172 11.4418 0.2 11 0.2C10.5582 0.2 10.2 0.558172 10.2 1L11.8 1ZM10.2 11C10.2 11.4418 10.5582 11.8 11 11.8C11.4418 11.8 11.8 11.4418 11.8 11L10.2 11ZM10.2 1L10.2 11L11.8 11L11.8 1L10.2 1Z" fill="#9B1A48"/>
</svg>
