<svg width="20" height="21" viewBox="0 0 20 21" fill="none" xmlns="http://www.w3.org/2000/svg">
<path d="M15.4545 0.5C15.2134 0.500024 14.9822 0.595811 14.8117 0.766293C14.6413 0.936776 14.5455 1.16799 14.5455 1.40909V19.5909C14.5455 19.832 14.6413 20.0632 14.8117 20.2337C14.9822 20.4042 15.2134 20.5 15.4545 20.5H19.0909C19.332 20.5 19.5632 20.4042 19.7337 20.2337C19.9042 20.0632 20 19.832 20 19.5909V1.40909C20 1.16799 19.9042 0.936776 19.7337 0.766293C19.5632 0.595811 19.332 0.500024 19.0909 0.5H15.4545ZM16.3636 2.31818H18.1818V18.6818H16.3636V2.31818ZM8.18182 5.95455C7.94072 5.95457 7.7095 6.05036 7.53902 6.22084C7.36854 6.39132 7.27275 6.62254 7.27273 6.86364V19.5909C7.27275 19.832 7.36854 20.0632 7.53902 20.2337C7.7095 20.4042 7.94072 20.5 8.18182 20.5H11.8182C12.0593 20.5 12.2905 20.4042 12.461 20.2337C12.6315 20.0632 12.7272 19.832 12.7273 19.5909V6.86364C12.7272 6.62254 12.6315 6.39132 12.461 6.22084C12.2905 6.05036 12.0593 5.95457 11.8182 5.95455H8.18182ZM9.09091 7.77273H10.9091V18.6818H9.09091V7.77273ZM0.909091 11.4091C0.667992 11.4091 0.436776 11.5049 0.266293 11.6754C0.0958108 11.8459 2.41062e-05 12.0771 0 12.3182V19.5909C2.41062e-05 19.832 0.0958108 20.0632 0.266293 20.2337C0.436776 20.4042 0.667992 20.5 0.909091 20.5H4.54545C4.78655 20.5 5.01777 20.4042 5.18825 20.2337C5.35873 20.0632 5.45452 19.832 5.45455 19.5909V12.3182C5.45452 12.0771 5.35873 11.8459 5.18825 11.6754C5.01777 11.5049 4.78655 11.4091 4.54545 11.4091H0.909091ZM1.81818 13.2273H3.63636V18.6818H1.81818V13.2273Z" fill="#CFA146"/>
</svg>
