<svg width="26" height="26" viewBox="0 0 26 26" fill="none" xmlns="http://www.w3.org/2000/svg">
<g clip-path="url(#clip0)">
<path opacity="0.35" d="M15.3902 4.20068L11.1583 4.26359C10.1156 4.27909 9.28375 5.13608 9.29925 6.17872L9.32009 7.58007C8.37833 8.04291 7.49405 8.66195 6.7206 9.45874C3.11324 13.175 3.20149 19.1112 6.91772 22.7185C10.634 26.3259 16.5701 26.2376 20.1775 22.5214C23.7849 18.8052 23.6966 12.869 19.9804 9.26162C19.1836 8.48817 18.2813 7.89569 17.3262 7.46105L17.3054 6.0597C17.2899 5.01706 16.4329 4.18518 15.3902 4.20068Z" fill="#9B1A48"/>
<path d="M14.3442 1.72741L12.1305 1.76031C11.5847 1.76843 11.1495 2.21676 11.1583 2.76179L11.1807 4.26364L15.368 4.20139L15.3456 2.69954C15.3375 2.1538 14.8892 1.71861 14.3442 1.72741Z" fill="#9B1A48"/>
<path d="M8.29276 21.3018C11.2264 24.1494 15.9133 24.0798 18.761 21.1462C21.6087 18.2126 21.539 13.5256 18.6054 10.6779C16.7631 16.4913 10.6781 14.9288 8.29276 21.3018Z" fill="#9B1A48"/>
<path fill-rule="evenodd" clip-rule="evenodd" d="M3.32264 2.82818C3.45156 2.5411 3.73648 2.35693 4.05064 2.35693C4.36481 2.35693 4.64973 2.5411 4.77864 2.82818L5.37773 4.1661C5.38856 4.19102 5.40481 4.21377 5.42431 4.23327C5.44381 4.25277 5.46656 4.26793 5.49148 4.27985L6.82939 4.87893C7.11648 5.00785 7.30064 5.29277 7.30064 5.60693C7.30064 5.9211 7.11648 6.20602 6.82939 6.33493L5.49039 6.93402C5.46548 6.94485 5.44273 6.9611 5.42323 6.9806C5.40373 6.99902 5.38856 7.02177 5.37664 7.04668L4.77756 8.38568C4.64973 8.67277 4.36481 8.85693 4.04956 8.85693C3.73431 8.85693 3.45048 8.67277 3.32156 8.38568L2.72356 7.04668C2.71273 7.02177 2.69648 6.99902 2.67698 6.97952C2.65748 6.9611 2.63473 6.94485 2.60981 6.93402L1.27189 6.33493C0.984811 6.20602 0.799561 5.9211 0.799561 5.60693C0.799561 5.29277 0.983727 5.00785 1.27081 4.87893L2.60873 4.27985C2.63364 4.26902 2.65639 4.25277 2.67589 4.23327C2.69648 4.21485 2.71164 4.1921 2.72356 4.16718L3.32264 2.82818Z" fill="#9B1A48"/>
<path fill-rule="evenodd" clip-rule="evenodd" d="M10.348 8.98067C10.4336 8.79 10.6243 8.6665 10.8334 8.6665C11.0424 8.6665 11.2331 8.79 11.3187 8.98067L11.7184 9.87334C11.726 9.88959 11.7358 9.90475 11.7488 9.91775C11.7618 9.93075 11.7769 9.94159 11.7932 9.94809L12.6859 10.3478C12.8765 10.4334 13 10.6241 13 10.8332C13 11.0423 12.8765 11.2329 12.6859 11.3185L11.7932 11.7183C11.7769 11.7258 11.7618 11.7356 11.7488 11.7486C11.7358 11.7616 11.7249 11.7768 11.7184 11.793L11.3187 12.6857C11.2331 12.8763 11.0424 12.9998 10.8334 12.9998C10.6243 12.9998 10.4336 12.8763 10.348 12.6857L9.94827 11.793C9.94069 11.7768 9.93094 11.7616 9.91794 11.7486C9.90494 11.7356 9.88977 11.7248 9.87352 11.7183L8.98085 11.3185C8.79019 11.2329 8.66669 11.0423 8.66669 10.8332C8.66669 10.6241 8.79019 10.4334 8.98085 10.3478L9.87352 9.94809C9.88977 9.9405 9.90494 9.93075 9.91794 9.91775C9.93094 9.90475 9.94177 9.88959 9.94827 9.87334L10.348 8.98067Z" fill="#9B1A48"/>
</g>
<defs>
<clipPath id="clip0">
<rect width="26" height="26" fill="white"/>
</clipPath>
</defs>
</svg>
