<svg width="14" height="14" viewBox="0 0 14 14" fill="none" xmlns="http://www.w3.org/2000/svg">
<path opacity="0.35" d="M11.6497 8.50676C11.6579 8.39418 11.6667 8.2816 11.6667 8.16668C11.6667 7.31676 11.4392 6.51935 11.0419 5.83276L2.9575 5.83335C2.56083 6.51935 2.33333 7.31676 2.33333 8.16668C2.33333 8.2816 2.34208 8.39418 2.35025 8.50676C2.00258 8.62226 1.75 8.9466 1.75 9.33335C1.75 9.81635 2.142 10.2083 2.625 10.2083C2.68508 10.2083 2.74342 10.2025 2.8 10.1908C3.55425 11.753 5.14908 12.8333 7 12.8333C8.85092 12.8333 10.4458 11.753 11.2 10.1908C11.2566 10.2025 11.3149 10.2083 11.375 10.2083C11.858 10.2083 12.25 9.81635 12.25 9.33335C12.25 8.9466 11.9974 8.62226 11.6497 8.50676Z" fill="black"/>
<path d="M12.25 6.41666V8.16666C12.25 8.48749 11.9875 8.74999 11.6667 8.74999C11.3458 8.74999 11.0833 8.50499 11.0833 8.16666C11.0833 7.19833 10.3017 6.41666 9.33333 6.41666H4.66667C3.69833 6.41666 2.91667 7.20999 2.91667 8.16666C2.91667 8.58083 2.65417 8.74999 2.33333 8.74999C2.0125 8.74999 1.75 8.48749 1.75 8.16666V6.41666C1.75 4.29333 3.01 2.46749 4.82417 1.63916C4.36917 2.01249 4.08333 2.57833 4.08333 3.20833C4.08333 4.33416 4.99917 5.24999 6.125 5.24999C6.65 5.24999 7.1225 5.04583 7.48417 4.72499C7.8575 5.03999 8.41167 5.24999 9.04167 5.24999C9.51417 5.24999 9.94583 5.12749 10.2958 4.93499C10.6108 5.13333 10.9783 5.24999 11.375 5.24999C11.6317 5.24999 11.8767 5.20333 12.1042 5.10999C12.1975 5.47749 12.25 5.91499 12.25 6.41666Z" fill="black"/>
<path opacity="0.35" d="M11.8452 1.22617C11.5244 0.837083 11.0443 0.583333 10.5 0.583333C10.1465 0.583333 9.81871 0.690083 9.54337 0.870333C9.17412 0.345333 8.56571 0 7.87504 0C7.05837 0 6.35896 0.483 6.03229 1.176C4.94846 1.22558 4.08337 2.11225 4.08337 3.20833C4.08337 4.33592 4.99746 5.25 6.12504 5.25C6.64887 5.25 7.12137 5.047 7.48246 4.72325C7.85696 5.04233 8.41287 5.25 9.04171 5.25C9.51712 5.25 9.94821 5.12925 10.2953 4.935C10.6091 5.13158 10.9772 5.25 11.375 5.25C12.5026 5.25 13.4167 4.33592 13.4167 3.20833C13.4167 2.2435 12.7453 1.43967 11.8452 1.22617Z" fill="black"/>
<path d="M6.41671 3.49992C6.73887 3.49992 7.00004 3.23875 7.00004 2.91659C7.00004 2.59442 6.73887 2.33325 6.41671 2.33325C6.09454 2.33325 5.83337 2.59442 5.83337 2.91659C5.83337 3.23875 6.09454 3.49992 6.41671 3.49992Z" fill="black"/>
<path d="M8.74996 3.49992C9.07213 3.49992 9.33329 3.23875 9.33329 2.91659C9.33329 2.59442 9.07213 2.33325 8.74996 2.33325C8.42779 2.33325 8.16663 2.59442 8.16663 2.91659C8.16663 3.23875 8.42779 3.49992 8.74996 3.49992Z" fill="black"/>
<path d="M11.0833 3.49992C11.4055 3.49992 11.6667 3.23875 11.6667 2.91659C11.6667 2.59442 11.4055 2.33325 11.0833 2.33325C10.7612 2.33325 10.5 2.59442 10.5 2.91659C10.5 3.23875 10.7612 3.49992 11.0833 3.49992Z" fill="black"/>
</svg>
