<svg width="28" height="28" viewBox="0 0 28 28" fill="none" xmlns="http://www.w3.org/2000/svg">
<path opacity="0.35" d="M17.5 7H10.5C10.5 7 3.5 10.5 3.5 18.6667C3.5 24.4662 8.2005 25.6667 14 25.6667C19.7995 25.6667 24.5 24.4662 24.5 18.6667C24.5 10.5 17.5 7 17.5 7Z" fill="#6D5555"/>
<path d="M18.6666 8.16658H9.33329C8.68929 8.16658 8.16663 7.64508 8.16663 6.99992C8.16663 6.35475 8.68929 5.83325 9.33329 5.83325H18.6666C19.3106 5.83325 19.8333 6.35475 19.8333 6.99992C19.8333 7.64508 19.3106 8.16658 18.6666 8.16658Z" fill="#6D5555"/>
<path opacity="0.35" d="M17.234 2.97858L16.2061 2.77325C15.8993 1.84225 15.0336 1.16675 14 1.16675C12.9663 1.16675 12.1006 1.84225 11.7938 2.77325L10.766 2.97858C9.52347 3.22708 8.93081 4.65741 9.63431 5.71208L10.493 7.00008H11.6748H16.3263H17.5081L18.3668 5.71208C19.0691 4.65741 18.4765 3.22708 17.234 2.97858Z" fill="#6D5555"/>
<path d="M15.1501 18.1795C17.447 18.1795 18.6451 16.8521 18.6451 15.0971C18.6451 13.367 17.4669 11.9849 15.1501 11.9849H11.4512V16.8769H9.89514V18.1795H11.4512V19.0346H9.89514V20.3421H11.4512V22.1667H12.9825V20.3421H15.2247V19.0346H12.9825V18.1795H15.1501ZM12.9825 16.8769V13.2974H15.1501C16.4825 13.2974 17.1189 14.068 17.1189 15.1021C17.1189 16.1461 16.4875 16.8769 15.1302 16.8769H12.9825Z" fill="#6D5555"/>
</svg>
