<svg width="20" height="22" viewBox="0 0 20 22" fill="none" xmlns="http://www.w3.org/2000/svg">
<path d="M3.24146 2.65676L3.24127 2.65676C1.90382 2.65848 0.851465 3.8834 0.85 5.35361V5.35376L0.85 18.6284L0.85 18.6286C0.851465 20.0988 1.90382 21.3237 3.24127 21.3254H3.24146H15.8201H15.8203C17.1577 21.3237 18.2101 20.0988 18.2115 18.6286V18.6284V14.1053C18.2115 13.7597 17.9611 13.4459 17.6132 13.4459C17.2653 13.4459 17.0149 13.7597 17.0149 14.1053V18.628C17.0141 19.4076 16.4622 20.0057 15.8199 20.0064H3.24162C2.59928 20.0057 2.04739 19.4076 2.04658 18.628V5.35392C2.04739 4.57463 2.59922 3.97648 3.24157 3.97556C3.2416 3.97556 3.24163 3.97556 3.24166 3.97556L7.2218 3.97556C7.56969 3.97556 7.82009 3.66178 7.82009 3.31616C7.82009 2.97078 7.56972 2.65676 7.2218 2.65676L3.24146 2.65676Z" fill="#9B1A48" stroke="#9B1A48" stroke-width="0.3"/>
<path d="M5.72069 15.0872C5.6665 15.3088 5.72018 15.5492 5.86859 15.7181L5.86874 15.7183C6.01925 15.8891 6.24648 15.961 6.463 15.8929L6.46305 15.8929L10.26 14.6976L10.26 14.6976L10.215 14.5546M5.72069 15.0872L10.4124 14.4238M5.72069 15.0872L6.7724 10.7728C6.79848 10.6657 6.84888 10.5664 6.92057 10.4849L14.9184 1.39691C15.7659 0.43381 17.149 0.43381 17.9965 1.39691L18.5226 1.99466L18.5227 1.99478C19.359 2.94723 19.359 4.48214 18.5227 5.43458L18.5226 5.4347L10.525 14.5229L10.4124 14.4238M5.72069 15.0872L10.4124 14.4238M10.215 14.5546C10.2896 14.5311 10.3575 14.4861 10.4124 14.4238M10.215 14.5546L6.418 15.7499L10.215 14.5546ZM15.7777 2.31543L15.7777 2.31545L15.3893 2.75659L17.3006 4.92848L17.6633 4.51632L15.7777 2.31543ZM15.7777 2.31543C16.1556 1.88604 16.7594 1.88604 17.1372 2.31543L17.1373 2.31545M15.7777 2.31543L17.1373 2.31545M17.1373 2.31545L17.6633 2.91302L17.1373 2.31545ZM16.4667 5.87585L10.1208 13.0868L8.20977 10.9151L14.5555 3.70415L16.4667 5.87585ZM7.1507 14.3047L7.66584 12.1918L9.00999 13.7194L7.1507 14.3047ZM17.6635 2.9132C18.0505 3.35443 18.0505 4.0752 17.6635 4.51619L17.6635 2.9132Z" fill="#9B1A48" stroke="#9B1A48" stroke-width="0.3"/>
</svg>
