<svg width="14" height="14" viewBox="0 0 14 14" fill="none" xmlns="http://www.w3.org/2000/svg">
<path opacity="0.35" d="M6.99996 5.83341C8.28862 5.83341 9.33329 4.78875 9.33329 3.50008C9.33329 2.21142 8.28862 1.16675 6.99996 1.16675C5.71129 1.16675 4.66663 2.21142 4.66663 3.50008C4.66663 4.78875 5.71129 5.83341 6.99996 5.83341Z" fill="black"/>
<path opacity="0.35" d="M2.62496 6.99992C3.43037 6.99992 4.08329 6.347 4.08329 5.54159C4.08329 4.73617 3.43037 4.08325 2.62496 4.08325C1.81954 4.08325 1.16663 4.73617 1.16663 5.54159C1.16663 6.347 1.81954 6.99992 2.62496 6.99992Z" fill="black"/>
<path opacity="0.35" d="M11.375 6.99992C12.1804 6.99992 12.8333 6.347 12.8333 5.54159C12.8333 4.73617 12.1804 4.08325 11.375 4.08325C10.5695 4.08325 9.91663 4.73617 9.91663 5.54159C9.91663 6.347 10.5695 6.99992 11.375 6.99992Z" fill="black"/>
<path d="M8.75 11.0833H5.25C4.28342 11.0833 3.5 10.1693 3.5 9.04167C3.5 7.91408 4.28342 7 5.25 7H8.75C9.71658 7 10.5 7.91408 10.5 9.04167C10.5 10.1693 9.71658 11.0833 8.75 11.0833Z" fill="black"/>
<path opacity="0.35" d="M12.5714 8.16675H1.38367C0.6195 8.16675 0 8.78625 0 9.55041V9.70033C0 10.4639 0.6195 11.0834 1.38367 11.0834H12.5714C13.3601 11.0834 14 10.4435 14 9.65425V9.59533C14 8.80666 13.3601 8.16675 12.5714 8.16675Z" fill="black"/>
</svg>
