<svg width="29" height="22" viewBox="0 0 29 22" fill="none" xmlns="http://www.w3.org/2000/svg">
<path d="M11.4174 0C10.572 0 9.80007 0.470216 9.42195 1.21602L8.9819 2.08398C8.60378 2.82868 7.83075 3.3 6.9864 3.3H2.23077C0.998269 3.3 0 4.2845 0 5.5V19.8C0 21.0155 0.998269 22 2.23077 22H26.7692C28.0017 22 29 21.0155 29 19.8V5.5C29 4.2845 28.0017 3.3 26.7692 3.3H22.0136C21.1681 3.3 20.3962 2.82978 20.0181 2.08398L19.578 1.21602C19.1999 0.471316 18.4269 0 17.5826 0H11.4174ZM14.5 4.4C18.8054 4.4 22.3077 7.854 22.3077 12.1C22.3077 16.346 18.8054 19.8 14.5 19.8C10.1946 19.8 6.69231 16.346 6.69231 12.1C6.69231 7.854 10.1946 4.4 14.5 4.4ZM24.5385 5.5C25.1542 5.5 25.6538 5.9928 25.6538 6.6C25.6538 7.2072 25.1542 7.7 24.5385 7.7C23.9228 7.7 23.4231 7.2072 23.4231 6.6C23.4231 5.9928 23.9228 5.5 24.5385 5.5ZM14.5 6.6C13.0209 6.6 11.6024 7.17946 10.5565 8.21091C9.51064 9.24236 8.92308 10.6413 8.92308 12.1C8.92308 13.5587 9.51064 14.9576 10.5565 15.9891C11.6024 17.0205 13.0209 17.6 14.5 17.6C15.9791 17.6 17.3976 17.0205 18.4435 15.9891C19.4894 14.9576 20.0769 13.5587 20.0769 12.1C20.0769 10.6413 19.4894 9.24236 18.4435 8.21091C17.3976 7.17946 15.9791 6.6 14.5 6.6Z" fill="white"/>
</svg>
