<svg width="14" height="14" viewBox="0 0 14 14" fill="none" xmlns="http://www.w3.org/2000/svg">
<g clip-path="url(#clip0)">
<path opacity="0.35" d="M13.125 5.25H12.3375C12.2115 5.00033 12.0662 4.76058 11.8971 4.53483L12.2739 2.27325C12.32 1.99967 12.1088 1.75 11.8312 1.75C10.9602 1.75 10.1523 2.142 9.60575 2.79067C8.9005 2.50017 8.11883 2.33333 7.29167 2.33333C4.56517 2.33333 2.30417 4.09617 1.84158 6.41667H1.45833C1.29733 6.41667 1.16667 6.28542 1.16667 6.125C1.16667 6.0305 1.21275 5.94183 1.29033 5.88758C1.554 5.70208 1.61817 5.33867 1.43325 5.075C1.24833 4.81075 0.8855 4.74717 0.620667 4.9315C0.232167 5.20392 0 5.65017 0 6.125C0 6.92942 0.6545 7.58333 1.45833 7.58333H1.76633C1.82817 8.53242 2.18458 9.40917 2.76033 10.1407C2.73117 10.1698 2.70258 10.1984 2.68158 10.2194C2.21725 10.6837 2.21725 11.4368 2.68158 11.9012C3.14592 12.3655 3.899 12.3655 4.36333 11.9012C4.42225 11.8422 4.51675 11.7477 4.62642 11.6381C5.41742 12.0278 6.32508 12.25 7.29167 12.25C8.25825 12.25 9.16592 12.0277 9.95692 11.6387C10.0666 11.7483 10.1611 11.8428 10.22 11.9017C10.6843 12.3661 11.4374 12.3661 11.9017 11.9017C12.3661 11.4374 12.3661 10.6843 11.9017 10.22C11.8807 10.199 11.8522 10.1704 11.823 10.1412C12.0219 9.88867 12.194 9.61858 12.3381 9.33392H13.1256C13.6086 9.33392 14.0006 8.94192 14.0006 8.45892V6.12558C14 5.642 13.608 5.25 13.125 5.25Z" fill="black"/>
<path d="M10.2084 7.58325C10.6916 7.58325 11.0834 7.1915 11.0834 6.70825C11.0834 6.225 10.6916 5.83325 10.2084 5.83325C9.72512 5.83325 9.33337 6.225 9.33337 6.70825C9.33337 7.1915 9.72512 7.58325 10.2084 7.58325Z" fill="black"/>
<path d="M7.29163 2.33325C7.53954 2.33325 7.78163 2.35309 8.02079 2.38109C7.67254 1.33925 6.70071 0.583252 5.54163 0.583252C4.09204 0.583252 2.91663 1.75867 2.91663 3.20825C2.91663 3.51509 2.97904 3.80442 3.07588 4.078C4.09204 3.01167 5.60229 2.33325 7.29163 2.33325Z" fill="black"/>
</g>
<defs>
<clipPath id="clip0">
<rect width="14" height="14" fill="white"/>
</clipPath>
</defs>
</svg>
