<svg width="24" height="24" viewBox="0 0 24 24" fill="none" xmlns="http://www.w3.org/2000/svg">
<path d="M19.0705 4.92262C17.1818 3.03793 14.6708 2 12 2C9.32922 2 6.8182 3.03793 4.92953 4.92262C3.04039 6.80777 2 9.3143 2 11.9805V12.0195C2 14.6857 3.04039 17.1922 4.92953 19.0774C6.8182 20.9621 9.32922 22 12 22C14.6708 22 17.1818 20.9621 19.0705 19.0774C20.9596 17.1922 22 14.6857 22 12.0195V11.9805C22 9.3143 20.9596 6.80777 19.0705 4.92262ZM20.4375 12.0195C20.4375 16.6612 16.6525 20.4375 12 20.4375C7.34754 20.4375 3.5625 16.6612 3.5625 12.0195V11.9805C3.5625 7.33879 7.34754 3.5625 12 3.5625C16.6525 3.5625 20.4375 7.33879 20.4375 11.9805V12.0195Z" fill="#9B1A48"/>
<path d="M12 7C9.243 7 7 9.243 7 12C7 14.757 9.243 17 12 17C14.757 17 17 14.757 17 12C17 9.243 14.757 7 12 7ZM12 15.4C10.1252 15.4 8.6 13.8748 8.6 12C8.6 10.1252 10.1252 8.6 12 8.6C13.8748 8.6 15.4 10.1252 15.4 12C15.4 13.8748 13.8748 15.4 12 15.4Z" fill="#9B1A48"/>
<path d="M12 15.4C10.1252 15.4 8.6 13.8748 8.6 12C8.6 10.1252 10.1252 8.6 12 8.6C13.8748 8.6 15.4 10.1252 15.4 12C15.4 13.8748 13.8748 15.4 12 15.4Z" fill="#9B1A48"/>
</svg>
