<svg width="64" height="64" viewBox="0 0 64 64" fill="none" xmlns="http://www.w3.org/2000/svg">
<path d="M47.2381 36.5713H16.7618V62.6559C16.7618 63.3258 17.4076 63.8062 18.0492 63.6137L32 59.4285L45.9508 63.6137C46.5924 63.8062 47.2381 63.3258 47.2381 62.6559V36.5713Z" fill="#CE215F"/>
<path d="M56.8762 28.3367C56.0427 26.8235 56.0427 24.9873 56.8762 23.4742L57.2755 22.7488C58.5783 20.3793 57.7829 17.4018 55.4667 16.0014L54.7581 15.5717C53.28 14.6757 52.3627 13.0879 52.3261 11.3614L52.3078 10.5324C52.253 7.82766 50.0739 5.6486 47.3692 5.59375L46.5402 5.57546C44.8122 5.54041 43.2229 4.62155 42.3299 3.14345L41.9002 2.43488C40.4998 0.120207 37.5223 -0.676748 35.1527 0.626113L34.4274 1.02535C32.9143 1.85888 31.0781 1.85888 29.5649 1.02535L28.8411 0.627637C26.4716 -0.675224 23.4956 0.121731 22.0952 2.4364L21.6655 3.14498C20.7695 4.62308 19.1817 5.54041 17.4552 5.57698L16.6262 5.59527C13.9214 5.65013 11.7424 7.82918 11.6875 10.534L11.6693 11.3629C11.6342 13.0909 10.7153 14.6803 9.23725 15.5732L8.52867 16.0029C6.21552 17.4033 5.41704 20.3808 6.7199 22.7504L7.11914 23.4757C7.95267 24.9889 7.95267 26.825 7.11914 28.3382L6.72143 29.062C5.41857 31.4315 6.214 34.4091 8.53019 35.8095L9.23877 36.2392C10.7169 37.1352 11.6342 38.723 11.6708 40.4495L11.6891 41.2784C11.7439 43.9832 13.923 46.1622 16.6277 46.2171L17.4567 46.2354C19.1847 46.2704 20.774 47.1893 21.667 48.6674L22.0967 49.376C23.4971 51.6891 26.4746 52.4876 28.8442 51.1847L29.5695 50.7855C31.0826 49.952 32.9188 49.952 34.432 50.7855L35.1573 51.1847C37.5268 52.4876 40.5044 51.6922 41.9048 49.376L42.3345 48.6674C43.2305 47.1893 44.8183 46.272 46.5448 46.2354L47.3737 46.2171C50.0785 46.1622 52.2576 43.9832 52.3124 41.2784L52.3307 40.4495C52.3657 38.7215 53.2846 37.1321 54.7627 36.2392L55.4713 35.8095C57.7844 34.4091 58.5829 31.4315 57.2801 29.062L56.8762 28.3367Z" fill="#FFB321"/>
<path d="M31.9985 9.02539C27.5218 9.02539 23.2285 10.8037 20.063 13.9692C16.8975 17.1347 15.1192 21.428 15.1192 25.9047C15.1192 30.3813 16.8975 34.6747 20.063 37.8401C23.2285 41.0056 27.5218 42.784 31.9985 42.784C36.4752 42.784 40.7685 41.0056 43.9339 37.8401C47.0994 34.6747 48.8778 30.3813 48.8778 25.9047C48.8778 21.428 47.0994 17.1347 43.9339 13.9692C40.7685 10.8037 36.4752 9.02539 31.9985 9.02539Z" fill="#FFB321"/>
<path d="M32 44.192C21.9169 44.192 13.7142 35.9893 13.7142 25.9062C13.7142 15.8231 21.9154 7.6189 32 7.6189C42.0846 7.6189 50.2858 15.8216 50.2858 25.9047C50.2858 35.9877 42.0831 44.192 32 44.192ZM32 10.6665C23.5977 10.6665 16.7619 17.5024 16.7619 25.9047C16.7619 34.307 23.5977 41.1428 32 41.1428C40.4023 41.1428 47.2381 34.307 47.2381 25.9047C47.2381 17.5024 40.4023 10.6665 32 10.6665Z" fill="#FFCC32"/>
</svg>
