<svg width="16" height="17" viewBox="0 0 16 17" fill="none" xmlns="http://www.w3.org/2000/svg">
<g clip-path="url(#clip0)">
<path d="M7.04608 0.5C3.16098 0.5 0 3.66098 0 7.54608C0 11.4314 3.16098 14.5922 7.04608 14.5922C10.9314 14.5922 14.0922 11.4314 14.0922 7.54608C14.0922 3.66098 10.9314 0.5 7.04608 0.5ZM7.04608 13.2914C3.87817 13.2914 1.30082 10.714 1.30082 7.54611C1.30082 4.3782 3.87817 1.80082 7.04608 1.80082C10.214 1.80082 12.7913 4.37817 12.7913 7.54608C12.7913 10.714 10.214 13.2914 7.04608 13.2914Z" fill="black"/>
<path d="M15.8094 15.3898L12.0804 11.6608C11.8263 11.4067 11.4148 11.4067 11.1607 11.6608C10.9066 11.9147 10.9066 12.3266 11.1607 12.5805L14.8897 16.3095C15.0168 16.4365 15.1831 16.5001 15.3496 16.5001C15.5159 16.5001 15.6824 16.4365 15.8094 16.3095C16.0635 16.0556 16.0635 15.6437 15.8094 15.3898Z" fill="black"/>
</g>
<defs>
<clipPath id="clip0">
<rect width="16" height="16" fill="white" transform="translate(0 0.5)"/>
</clipPath>
</defs>
</svg>
