<svg width="32" height="32" viewBox="0 0 32 32" fill="none" xmlns="http://www.w3.org/2000/svg">
<rect y="32.0002" width="32" height="32" rx="16" transform="rotate(-90 0 32.0002)" fill="#9B1A48"/>
<g clip-path="url(#clip0)">
<path d="M11.6904 14.2837C11.3649 14.6092 10.8524 14.6092 10.5269 14.2837C10.2124 13.9582 10.2124 13.4457 10.5269 13.1202L15.4021 8.24437C15.5531 8.09335 15.7628 8.00024 15.9952 8.00024C16.2276 8.00024 16.4372 8.09335 16.589 8.24437L21.4641 13.1202C21.7896 13.4457 21.7896 13.9582 21.4641 14.2837C21.1386 14.6092 20.6262 14.6092 20.3007 14.2837L16.8214 10.7926L16.8214 23.1858C16.8221 23.6396 16.4497 24.0002 15.9959 24.0002C15.5421 24.0002 15.1814 23.6396 15.1814 23.1858L15.1814 10.7934L11.6904 14.2837Z" fill="white"/>
</g>
<defs>
<clipPath id="clip0">
<rect width="16" height="16" fill="white" transform="translate(24 24.0002) rotate(180)"/>
</clipPath>
</defs>
</svg>
