<svg width="24" height="24" viewBox="0 0 24 24" fill="none" xmlns="http://www.w3.org/2000/svg">
<path d="M18.4 2.3999C17.5513 2.3999 16.7374 2.73704 16.1373 3.33716C15.5372 3.93728 15.2 4.75121 15.2 5.5999C15.2015 5.82484 15.2266 6.04899 15.275 6.26865L8.0094 9.90146C7.70974 9.55646 7.33966 9.27965 6.92406 9.08964C6.50847 8.89963 6.05699 8.80083 5.60002 8.7999C4.75133 8.7999 3.9374 9.13704 3.33728 9.73716C2.73717 10.3373 2.40002 11.1512 2.40002 11.9999C2.40002 12.8486 2.73717 13.6625 3.33728 14.2626C3.9374 14.8628 4.75133 15.1999 5.60002 15.1999C6.05714 15.1994 6.50884 15.1009 6.92471 14.9112C7.34059 14.7215 7.71098 14.4448 8.01096 14.0999L15.2719 17.7312C15.2245 17.9509 15.2004 18.1751 15.2 18.3999C15.2 19.2486 15.5372 20.0625 16.1373 20.6626C16.7374 21.2628 17.5513 21.5999 18.4 21.5999C19.2487 21.5999 20.0626 21.2628 20.6628 20.6626C21.2629 20.0625 21.6 19.2486 21.6 18.3999C21.6 17.5512 21.2629 16.7373 20.6628 16.1372C20.0626 15.537 19.2487 15.1999 18.4 15.1999C17.9429 15.2004 17.4912 15.2989 17.0753 15.4886C16.6595 15.6783 16.2891 15.955 15.9891 16.2999L8.72815 12.6687C8.77553 12.4489 8.79962 12.2247 8.80002 11.9999C8.79849 11.7755 8.77335 11.5519 8.72502 11.3327L15.9906 7.6999C16.2905 8.04462 16.6606 8.32114 17.0762 8.51088C17.4918 8.70061 17.9432 8.79916 18.4 8.7999C19.2487 8.7999 20.0626 8.46276 20.6628 7.86264C21.2629 7.26253 21.6 6.4486 21.6 5.5999C21.6 4.75121 21.2629 3.93728 20.6628 3.33716C20.0626 2.73704 19.2487 2.3999 18.4 2.3999Z" fill="#CFA146"/>
</svg>
