<svg width="26" height="26" viewBox="0 0 26 26" fill="none" xmlns="http://www.w3.org/2000/svg">
<path d="M16.7917 5.41667L13.5417 3.25H18.4167L16.7917 5.41667Z" fill="#9B1A48"/>
<path d="M22.75 8.12484L16.7917 5.4165L15.1667 10.2915L22.75 8.12484Z" fill="#9B1A48"/>
<path d="M10.2917 14.6248L17.4601 17.4599L15.1667 10.2915L10.2917 14.6248Z" fill="#9B1A48"/>
<path d="M5.41669 16.25L7.58335 22.75L10.2917 14.625L5.41669 16.25Z" fill="#9B1A48"/>
<path d="M3.25 13V18.4167L5.41667 16.25L3.25 13Z" fill="#9B1A48"/>
<path opacity="0.35" d="M21.5583 4.44167C20.0818 2.96508 17.5088 2.91092 14.6933 4.017L13.5417 3.25L9.20833 5.41667L5.41667 9.20833L3.25 13L4.15675 14.3607C2.91417 17.3052 2.90875 20.0243 4.44167 21.5583C5.56942 22.6861 7.33525 22.9873 9.36217 22.5734L18.4113 21.8768C20.2638 21.7349 21.7349 20.2627 21.8768 18.4113L22.5723 9.36325C22.9862 7.33633 22.685 5.56942 21.5583 4.44167Z" fill="#9B1A48"/>
</svg>
