<svg width="16" height="21" viewBox="0 0 16 21" fill="none" xmlns="http://www.w3.org/2000/svg">
<path opacity="0.35" d="M13 21H3C1.343 21 0 19.657 0 18V5C0 3.343 1.343 2 3 2H13C14.657 2 16 3.343 16 5V18C16 19.657 14.657 21 13 21Z" fill="#9B1A48"/>
<path d="M10 4H6C4.895 4 4 3.105 4 2C4 0.895 4.895 0 6 0H10C11.105 0 12 0.895 12 2C12 3.105 11.105 4 10 4Z" fill="#9B1A48"/>
<path d="M12 14H8C7.447 14 7 13.552 7 13C7 12.448 7.447 12 8 12H12C12.553 12 13 12.448 13 13C13 13.552 12.553 14 12 14Z" fill="#9B1A48"/>
<path d="M4 14C4.55228 14 5 13.5523 5 13C5 12.4477 4.55228 12 4 12C3.44772 12 3 12.4477 3 13C3 13.5523 3.44772 14 4 14Z" fill="#9B1A48"/>
<path d="M12 18H8C7.447 18 7 17.552 7 17C7 16.448 7.447 16 8 16H12C12.553 16 13 16.448 13 17C13 17.552 12.553 18 12 18Z" fill="#9B1A48"/>
<path d="M4 18C4.55228 18 5 17.5523 5 17C5 16.4477 4.55228 16 4 16C3.44772 16 3 16.4477 3 17C3 17.5523 3.44772 18 4 18Z" fill="#9B1A48"/>
<path d="M12 10H8C7.447 10 7 9.552 7 9C7 8.448 7.447 8 8 8H12C12.553 8 13 8.448 13 9C13 9.552 12.553 10 12 10Z" fill="#9B1A48"/>
<path d="M4 10C4.55228 10 5 9.55228 5 9C5 8.44771 4.55228 8 4 8C3.44772 8 3 8.44771 3 9C3 9.55228 3.44772 10 4 10Z" fill="#9B1A48"/>
</svg>
