<svg width="14" height="14" viewBox="0 0 14 14" fill="none" xmlns="http://www.w3.org/2000/svg">
<path opacity="0.35" d="M11.6667 2.91675C11.6667 1.95016 10.8833 1.16675 9.91671 1.16675H4.08337C3.11679 1.16675 2.33337 1.95016 2.33337 2.91675V11.0834C2.33337 12.05 3.11679 12.8334 4.08337 12.8334H9.91671C10.8833 12.8334 11.6667 12.05 11.6667 11.0834V2.91675Z" fill="black"/>
<path d="M8.45829 2.33325H5.54163C5.05804 2.33325 4.66663 1.94125 4.66663 1.45825C4.66663 0.975252 5.05804 0.583252 5.54163 0.583252H8.45829C8.94188 0.583252 9.33329 0.975252 9.33329 1.45825C9.33329 1.94125 8.94188 2.33325 8.45829 2.33325Z" fill="black"/>
<path d="M6.41661 9.33323C6.26728 9.33323 6.11794 9.27607 6.00419 9.16232L4.25419 7.41232C4.02611 7.18423 4.02611 6.81557 4.25419 6.58749C4.48228 6.3594 4.85094 6.3594 5.07903 6.58749L6.41661 7.92507L8.92086 5.42082C9.14894 5.19274 9.51761 5.19274 9.74569 5.42082C9.97378 5.6489 9.97378 6.01757 9.74569 6.24565L6.82903 9.16232C6.71528 9.27607 6.56594 9.33323 6.41661 9.33323Z" fill="black"/>
</svg>
