<svg width="24" height="24" viewBox="0 0 24 24" fill="none" xmlns="http://www.w3.org/2000/svg">
<path opacity="0.35" d="M16.5 0C15.672 0 15 0.672 15 1.5C15 1.53 15 1.72 15 2H9C7.343 2 6 3.343 6 5V19C6 20.657 7.343 22 9 22H15C16.657 22 18 20.657 18 19C18 19 18 1.53 18 1.5C18 0.672 17.328 0 16.5 0Z" fill="#9B1A48"/>
<path d="M14 5H10C9.448 5 9 5.448 9 6V9C9 9.552 9.448 10 10 10H14C14.552 10 15 9.552 15 9V6C15 5.448 14.552 5 14 5Z" fill="#9B1A48"/>
<path d="M10 15C10.5523 15 11 14.5523 11 14C11 13.4477 10.5523 13 10 13C9.44772 13 9 13.4477 9 14C9 14.5523 9.44772 15 10 15Z" fill="#9B1A48"/>
<path d="M14 15C14.5523 15 15 14.5523 15 14C15 13.4477 14.5523 13 14 13C13.4477 13 13 13.4477 13 14C13 14.5523 13.4477 15 14 15Z" fill="#9B1A48"/>
<path d="M10 19C10.5523 19 11 18.5523 11 18C11 17.4477 10.5523 17 10 17C9.44772 17 9 17.4477 9 18C9 18.5523 9.44772 19 10 19Z" fill="#9B1A48"/>
<path d="M14 19C14.5523 19 15 18.5523 15 18C15 17.4477 14.5523 17 14 17C13.4477 17 13 17.4477 13 18C13 18.5523 13.4477 19 14 19Z" fill="#9B1A48"/>
</svg>
