<svg width="14" height="14" viewBox="0 0 14 14" fill="none" xmlns="http://www.w3.org/2000/svg">
<path opacity="0.35" d="M12.8333 7.00008C12.8333 6.03758 12.3608 5.18591 11.6375 4.65508C11.6491 4.56175 11.6666 4.47425 11.6666 4.37508C11.6666 3.33675 10.8908 2.49091 9.88746 2.36258C9.76496 1.68008 9.17579 1.16675 8.45829 1.16675C7.65329 1.16675 6.99996 1.82008 6.99996 2.62508C6.99996 1.82008 6.34663 1.16675 5.54163 1.16675C4.82413 1.16675 4.23496 1.68008 4.11246 2.36258C3.10913 2.49091 2.33329 3.33675 2.33329 4.37508C2.33329 4.47425 2.35079 4.56175 2.36246 4.65508C1.63913 5.18591 1.16663 6.03758 1.16663 7.00008C1.16663 7.96258 1.63913 8.81425 2.36246 9.34508C2.35079 9.43842 2.33329 9.52592 2.33329 9.62508C2.33329 10.6634 3.10913 11.5092 4.11246 11.6376C4.23496 12.3201 4.82413 12.8334 5.54163 12.8334C6.34663 12.8334 6.99996 12.1801 6.99996 11.3751C6.99996 12.1801 7.65329 12.8334 8.45829 12.8334C9.17579 12.8334 9.76496 12.3201 9.88746 11.6376C10.8908 11.5092 11.6666 10.6634 11.6666 9.62508C11.6666 9.52592 11.6491 9.43842 11.6375 9.34508C12.3608 8.81425 12.8333 7.96258 12.8333 7.00008Z" fill="black"/>
<path d="M9.33336 6.99992C9.33336 6.77825 9.43311 6.5805 9.59002 6.44809C9.72944 6.32967 9.79069 6.14183 9.72652 5.97034C9.61336 5.67109 9.45294 5.39517 9.25402 5.1525C9.14202 5.016 8.95419 4.96409 8.78969 5.02709C8.59194 5.10292 8.36444 5.09359 8.16669 4.97925C7.96836 4.86492 7.84586 4.67125 7.81377 4.46184C7.78752 4.29034 7.65161 4.15325 7.48069 4.12409C7.32436 4.09725 7.16394 4.08325 7.00002 4.08325C6.83611 4.08325 6.67569 4.09725 6.51994 4.12409C6.34902 4.15325 6.21311 4.29034 6.18686 4.46184C6.15419 4.67125 6.03169 4.86492 5.83336 4.97925C5.63561 5.09359 5.40811 5.10292 5.21036 5.02709C5.04644 4.9635 4.85802 5.016 4.74661 5.15192C4.54711 5.39517 4.38669 5.6705 4.27411 5.96975C4.20936 6.14125 4.27061 6.32909 4.41061 6.4475C4.56694 6.5805 4.66669 6.77825 4.66669 6.99992C4.66669 7.22159 4.56694 7.41934 4.41002 7.55175C4.27061 7.67017 4.20936 7.858 4.27352 8.0295C4.38669 8.32875 4.54711 8.60467 4.74602 8.84733C4.85802 8.98325 5.04586 9.03575 5.21036 8.97275C5.40752 8.89692 5.63561 8.90625 5.83336 9.02059C6.03169 9.13492 6.15419 9.32859 6.18627 9.538C6.21252 9.7095 6.34844 9.84659 6.51936 9.87575C6.67569 9.90259 6.83611 9.91658 7.00002 9.91658C7.16394 9.91658 7.32436 9.90259 7.48011 9.87575C7.65102 9.84659 7.78694 9.7095 7.81319 9.538C7.84527 9.328 7.96777 9.13492 8.16611 9.02059C8.36386 8.90625 8.59136 8.89692 8.78911 8.97275C8.95361 9.03633 9.14144 8.98384 9.25344 8.84733C9.45294 8.60408 9.61336 8.32875 9.72594 8.0295C9.79069 7.858 9.72944 7.67017 9.58944 7.55175C9.43311 7.41934 9.33336 7.22159 9.33336 6.99992ZM7.00002 8.16658C6.35544 8.16658 5.83336 7.6445 5.83336 6.99992C5.83336 6.35534 6.35544 5.83325 7.00002 5.83325C7.64461 5.83325 8.16669 6.35534 8.16669 6.99992C8.16669 7.6445 7.64461 8.16658 7.00002 8.16658Z" fill="black"/>
</svg>
