<svg width="20" height="21" viewBox="0 0 20 21" fill="none" xmlns="http://www.w3.org/2000/svg">
<g clip-path="url(#clip0)">
<path d="M13.5632 12.2657L10.7746 10.1742V5.91401C10.7746 5.48565 10.4284 5.1394 10 5.1394C9.57165 5.1394 9.2254 5.48565 9.2254 5.91401V10.5616C9.2254 10.8056 9.34005 11.0357 9.53525 11.1813L12.6336 13.5051C12.773 13.6096 12.9357 13.66 13.0976 13.66C13.3338 13.66 13.5662 13.5539 13.7181 13.3494C13.9753 13.0077 13.9056 12.5221 13.5632 12.2657Z" fill="#CFA146"/>
<path d="M10 0.5C4.48566 0.5 0 4.98566 0 10.5C0 16.0143 4.48566 20.5 10 20.5C15.5143 20.5 20 16.0143 20 10.5C20 4.98566 15.5143 0.5 10 0.5ZM10 18.9508C5.34082 18.9508 1.54918 15.1592 1.54918 10.5C1.54918 5.84082 5.34082 2.04918 10 2.04918C14.66 2.04918 18.4508 5.84082 18.4508 10.5C18.4508 15.1592 14.6592 18.9508 10 18.9508Z" fill="#CFA146"/>
</g>
<defs>
<clipPath id="clip0">
<rect width="20" height="20" fill="white" transform="translate(0 0.5)"/>
</clipPath>
</defs>
</svg>
