<svg width="14" height="14" viewBox="0 0 14 14" fill="none" xmlns="http://www.w3.org/2000/svg">
<path opacity="0.35" d="M7 12.8333C9.8995 12.8333 12.25 10.4827 12.25 7.58325C12.25 4.68376 9.8995 2.33325 7 2.33325C4.1005 2.33325 1.75 4.68376 1.75 7.58325C1.75 10.4827 4.1005 12.8333 7 12.8333Z" fill="black"/>
<path d="M6.17511 8.40809C5.91728 8.15025 4.89586 6.60092 4.05703 5.30359C3.77586 4.869 4.2857 4.35917 4.72028 4.63975C6.01761 5.47859 7.56694 6.50059 7.82478 6.75784C8.28036 7.21342 8.28036 7.95192 7.82478 8.4075C7.36919 8.86367 6.6307 8.86367 6.17511 8.40809Z" fill="black"/>
<path d="M7.875 0.583252C7.64983 0.583252 6.35017 0.583252 6.125 0.583252C5.642 0.583252 5.25 0.975252 5.25 1.45825C5.25 1.94125 5.642 2.33325 6.125 2.33325C6.35017 2.33325 7.64983 2.33325 7.875 2.33325C8.358 2.33325 8.75 1.94125 8.75 1.45825C8.75 0.975252 8.358 0.583252 7.875 0.583252Z" fill="black"/>
<path d="M11.994 3.0018C11.8347 2.84255 11.7408 2.74863 11.5815 2.58938C11.2397 2.24755 10.6855 2.24755 10.3443 2.58938C10.003 2.93122 10.0025 3.48538 10.3443 3.82663C10.5035 3.98588 10.5975 4.0798 10.7567 4.23905C11.0985 4.58088 11.6527 4.58088 11.994 4.23905C12.3352 3.8978 12.3352 3.34363 11.994 3.0018Z" fill="black"/>
</svg>
