<svg width="40" height="40" viewBox="0 0 40 40" fill="none" xmlns="http://www.w3.org/2000/svg">
<g clip-path="url(#clip0)">
<path d="M14.6665 25.7452L16.6982 14.3167H19.8729L17.9046 25.7452H14.6665Z" fill="#3C58BF"/>
<path d="M14.6665 25.7452L17.2697 14.3167H19.8729L17.9046 25.7452H14.6665Z" fill="#293688"/>
<path d="M29.3959 14.4452C28.761 14.1912 27.7451 13.9373 26.4753 13.9373C23.3007 13.9373 21.015 15.5246 21.015 17.8103C21.015 19.5246 22.6023 20.4134 23.8721 20.9849C25.142 21.5563 25.5229 21.9373 25.5229 22.4452C25.5229 23.2071 24.507 23.5881 23.6182 23.5881C22.3483 23.5881 21.6499 23.3976 20.5705 22.9531L20.1261 22.7627L19.6816 25.3658C20.4435 25.6833 21.8404 26.0007 23.3007 26.0007C26.6658 26.0007 28.888 24.4134 28.888 22.0007C28.888 20.6674 28.0626 19.6515 26.1578 18.8261C25.015 18.2547 24.3166 17.9373 24.3166 17.3658C24.3166 16.8579 24.888 16.35 26.1578 16.35C27.2372 16.35 27.9991 16.5404 28.5705 16.7944L28.888 16.9214L29.3959 14.4452Z" fill="#3C58BF"/>
<path d="M29.3959 14.4452C28.761 14.1912 27.7451 13.9373 26.4753 13.9373C23.3007 13.9373 21.5864 15.5246 21.5864 17.8103C21.5864 19.5246 22.6023 20.4134 23.8721 20.9849C25.142 21.5563 25.5229 21.9373 25.5229 22.4452C25.5229 23.2071 24.507 23.5881 23.6182 23.5881C22.3483 23.5881 21.6499 23.3976 20.5705 22.9531L20.1261 22.7627L19.6816 25.3658C20.4435 25.6833 21.8404 26.0007 23.3007 26.0007C26.6658 26.0007 28.888 24.4134 28.888 22.0007C28.888 20.6674 28.0626 19.6515 26.1578 18.8261C25.015 18.2547 24.3166 17.9373 24.3166 17.3658C24.3166 16.8579 24.888 16.35 26.1578 16.35C27.2372 16.35 27.9991 16.5404 28.5705 16.7944L28.888 16.9214L29.3959 14.4452Z" fill="#293688"/>
<path d="M34.8578 14.3167C34.0959 14.3167 33.5244 14.3801 33.207 15.142L28.4451 25.7452H31.8736L32.5086 23.8405H36.572L36.953 25.7452H40.0006L37.334 14.3167H34.8578ZM33.3974 21.9357C33.5879 21.3643 34.6673 18.5706 34.6673 18.5706C34.6673 18.5706 34.9213 17.8722 35.1117 17.4278L35.3022 18.5071C35.3022 18.5071 35.9371 21.3643 36.0641 21.9992H33.3974V21.9357Z" fill="#3C58BF"/>
<path d="M35.6197 14.3167C34.8578 14.3167 34.2863 14.3801 33.9689 15.142L28.4451 25.7452H31.8736L32.5086 23.8405H36.572L36.953 25.7452H40.0006L37.334 14.3167H35.6197ZM33.3974 21.9357C33.6514 21.3008 34.6673 18.5706 34.6673 18.5706C34.6673 18.5706 34.9213 17.8722 35.1117 17.4278L35.3022 18.5071C35.3022 18.5071 35.9371 21.3643 36.0641 21.9992H33.3974V21.9357Z" fill="#293688"/>
<path d="M8.82563 22.3169L8.50816 20.6661C7.93674 18.7613 6.09547 16.6661 4.06372 15.6502L6.92086 25.8089H10.3494L15.4923 14.3804H12.0637L8.82563 22.3169Z" fill="#3C58BF"/>
<path d="M8.82563 22.3169L8.50816 20.6661C7.93674 18.7613 6.09547 16.6661 4.06372 15.6502L6.92086 25.8089H10.3494L15.4923 14.3804H12.6986L8.82563 22.3169Z" fill="#293688"/>
<path d="M0 14.3167L0.571429 14.4436C4.63492 15.396 7.42857 17.8087 8.50794 20.6659L7.36508 15.269C7.1746 14.5071 6.60317 14.3167 5.90476 14.3167H0Z" fill="#FFBC00"/>
<path d="M0 14.3167C4.06349 15.269 7.42857 17.7452 8.50794 20.6024L7.42857 16.0944C7.23809 15.3325 6.60317 14.8881 5.90476 14.8881L0 14.3167Z" fill="#F7981D"/>
<path d="M0 14.3167C4.06349 15.269 7.42857 17.7452 8.50794 20.6024L7.74603 18.1262C7.55555 17.3643 7.30159 16.6024 6.4127 16.2849L0 14.3167Z" fill="#ED7C00"/>
<path d="M12.0007 21.9356L9.84197 19.7769L8.8261 22.1896L8.57213 20.6023C8.0007 18.6975 6.15943 16.6023 4.12769 15.5864L6.98483 25.7452H10.4134L12.0007 21.9356Z" fill="#051244"/>
<path d="M17.9058 25.7451L15.1757 22.9514L14.6677 25.7451H17.9058Z" fill="#051244"/>
<path d="M25.2054 21.8083C25.4594 22.0623 25.5864 22.2528 25.5229 22.5068C25.5229 23.2687 24.507 23.6496 23.6181 23.6496C22.3483 23.6496 21.6499 23.4591 20.5705 23.0147L20.1261 22.8242L19.6816 25.4274C20.4435 25.7449 21.8404 26.0623 23.3007 26.0623C25.3324 26.0623 26.9832 25.4909 27.9356 24.475L25.2054 21.8083Z" fill="#051244"/>
<path d="M28.8882 25.7447H31.8723L32.5072 23.8399H36.5707L36.9517 25.7447H39.9993L38.9199 21.1098L35.1104 17.4272L35.3009 18.4431C35.3009 18.4431 35.9358 21.3003 36.0628 21.9352H33.3961C33.6501 21.3003 34.666 18.5701 34.666 18.5701C34.666 18.5701 34.9199 17.8717 35.1104 17.4272" fill="#051244"/>
</g>
<defs>
<clipPath id="clip0">
<rect width="40" height="40" fill="white"/>
</clipPath>
</defs>
</svg>
