<svg width="16" height="10" viewBox="0 0 16 10" fill="none" xmlns="http://www.w3.org/2000/svg">
<path d="M15.2541 8.73391C14.6551 7.65591 13.1121 6.36057 12.4751 5.79691C12.3008 5.64257 12.2821 5.37557 12.4408 5.20491C13.6564 3.89857 14.6288 2.39757 14.9634 1.49057C15.1111 1.08991 14.8054 0.666574 14.3748 0.666574H13.1238C12.7114 0.666574 12.4701 0.814574 12.3551 1.05024C11.3448 3.12057 10.4781 4.01657 9.87145 4.54024C9.53178 4.83357 9.00211 4.59057 9.00211 4.14424C9.00211 3.28424 9.00211 2.17257 9.00211 1.38424C9.00211 1.00191 8.68945 0.692574 8.30378 0.692574L6.01845 0.666574C5.73078 0.666574 5.56645 0.992241 5.73911 1.22057L6.11645 1.76224C6.25845 1.94991 6.33511 2.17824 6.33511 2.41257L6.33311 4.85191C6.33311 5.27624 5.81878 5.48357 5.51345 5.18624C4.48045 4.18024 3.58411 2.12591 3.26145 1.14357C3.16811 0.859241 2.90178 0.667241 2.59978 0.666574L1.36745 0.663574C0.905113 0.663574 0.567113 1.10191 0.69278 1.54324C1.81878 5.49557 4.12911 9.25557 8.24645 9.66324C8.65211 9.70324 9.00211 9.37657 9.00211 8.97224V7.69024C9.00211 7.32257 9.29045 7.00657 9.66111 6.99724C9.67411 6.99691 9.68711 6.99691 9.70011 6.99691C10.7891 6.99691 12.0088 8.58191 12.4354 9.32324C12.5581 9.53657 12.7874 9.66657 13.0354 9.66657H14.6931C15.1768 9.66657 15.4871 9.15357 15.2541 8.73391Z" fill="white"/>
</svg>
